<svg width="400" height="400" viewBox="0 0 400 400" fill="none" xmlns="http://www.w3.org/2000/svg">
<rect x="0.5" y="0.5" width="399" height="399" rx="29.5" fill="#EAEAEA"/>
<rect x="0.5" y="0.5" width="399" height="399" rx="29.5" stroke="#C2C2C2"/>
<path d="M158.333 116.333L241.667 199.667" stroke="#333333" stroke-width="2" stroke-linecap="round" stroke-linejoin="round"/>
<path d="M193.375 151.375C192.601 152.149 191.682 152.764 190.67 153.183C189.658 153.602 188.574 153.817 187.479 153.817C186.384 153.817 185.3 153.602 184.288 153.183C183.277 152.764 182.358 152.149 181.583 151.375C180.809 150.601 180.195 149.682 179.776 148.67C179.357 147.659 179.141 146.574 179.141 145.479C179.141 144.384 179.357 143.3 179.776 142.289C180.195 141.277 180.809 140.358 181.583 139.583" stroke="#333333" stroke-width="2" stroke-linecap="round" stroke-linejoin="round"/>
<path d="M206.25 164.25L175 195.5" stroke="#333333" stroke-width="2" stroke-linecap="round" stroke-linejoin="round"/>
<path d="M225 158L237.5 170.5" stroke="#333333" stroke-width="2" stroke-linecap="round" stroke-linejoin="round"/>
<path d="M164.958 122.958C164.182 123.727 163.565 124.642 163.143 125.651C162.721 126.659 162.502 127.741 162.5 128.833V187.167C162.5 189.377 163.378 191.497 164.941 193.059C166.504 194.622 168.623 195.5 170.833 195.5H229.167C231.458 195.5 233.55 194.583 235.042 193.042" stroke="#333333" stroke-width="2" stroke-linecap="round" stroke-linejoin="round"/>
<path d="M237.5 170.5V128.833C237.5 126.623 236.622 124.504 235.059 122.941C233.496 121.378 231.377 120.5 229.167 120.5H187.5" stroke="#333333" stroke-width="2" stroke-linecap="round" stroke-linejoin="round"/>
<path d="M168.374 235.455V250H166.669L158.743 238.58H158.601V250H156.839V235.455H158.544L166.499 246.903H166.641V235.455H168.374ZM176.103 250.227C175.118 250.227 174.254 249.993 173.51 249.524C172.772 249.055 172.194 248.4 171.777 247.557C171.365 246.714 171.159 245.729 171.159 244.602C171.159 243.466 171.365 242.474 171.777 241.626C172.194 240.779 172.772 240.121 173.51 239.652C174.254 239.183 175.118 238.949 176.103 238.949C177.087 238.949 177.949 239.183 178.688 239.652C179.431 240.121 180.009 240.779 180.421 241.626C180.837 242.474 181.046 243.466 181.046 244.602C181.046 245.729 180.837 246.714 180.421 247.557C180.009 248.4 179.431 249.055 178.688 249.524C177.949 249.993 177.087 250.227 176.103 250.227ZM176.103 248.722C176.851 248.722 177.466 248.53 177.949 248.146C178.432 247.763 178.79 247.259 179.022 246.634C179.254 246.009 179.37 245.331 179.37 244.602C179.37 243.873 179.254 243.194 179.022 242.564C178.79 241.934 178.432 241.425 177.949 241.037C177.466 240.649 176.851 240.455 176.103 240.455C175.355 240.455 174.739 240.649 174.256 241.037C173.773 241.425 173.416 241.934 173.184 242.564C172.952 243.194 172.836 243.873 172.836 244.602C172.836 245.331 172.952 246.009 173.184 246.634C173.416 247.259 173.773 247.763 174.256 248.146C174.739 248.53 175.355 248.722 176.103 248.722ZM189.229 250V239.091H190.906V250H189.229ZM190.082 237.273C189.755 237.273 189.473 237.161 189.237 236.939C189.004 236.716 188.888 236.449 188.888 236.136C188.888 235.824 189.004 235.556 189.237 235.334C189.473 235.111 189.755 235 190.082 235C190.408 235 190.688 235.111 190.92 235.334C191.156 235.556 191.275 235.824 191.275 236.136C191.275 236.449 191.156 236.716 190.92 236.939C190.688 237.161 190.408 237.273 190.082 237.273ZM193.975 250V239.091H195.595V240.795H195.737C195.964 240.213 196.331 239.761 196.838 239.439C197.344 239.112 197.953 238.949 198.663 238.949C199.383 238.949 199.982 239.112 200.46 239.439C200.943 239.761 201.319 240.213 201.589 240.795H201.703C201.982 240.232 202.401 239.785 202.96 239.453C203.519 239.117 204.189 238.949 204.97 238.949C205.945 238.949 206.743 239.254 207.363 239.865C207.984 240.471 208.294 241.416 208.294 242.699V250H206.618V242.699C206.618 241.894 206.397 241.319 205.957 240.973C205.517 240.627 204.998 240.455 204.402 240.455C203.635 240.455 203.04 240.687 202.619 241.151C202.198 241.61 201.987 242.192 201.987 242.898V250H200.282V242.528C200.282 241.908 200.081 241.409 199.679 241.03C199.276 240.646 198.758 240.455 198.123 240.455C197.688 240.455 197.28 240.571 196.902 240.803C196.528 241.035 196.225 241.357 195.993 241.768C195.765 242.176 195.652 242.647 195.652 243.182V250H193.975ZM214.569 250.256C213.877 250.256 213.25 250.125 212.686 249.865C212.123 249.6 211.676 249.219 211.344 248.722C211.013 248.22 210.847 247.614 210.847 246.903C210.847 246.278 210.97 245.772 211.216 245.384C211.462 244.991 211.792 244.683 212.203 244.46C212.615 244.238 213.07 244.072 213.567 243.963C214.069 243.849 214.573 243.759 215.08 243.693C215.743 243.608 216.28 243.544 216.692 243.501C217.109 243.454 217.412 243.376 217.601 243.267C217.795 243.158 217.892 242.969 217.892 242.699V242.642C217.892 241.941 217.701 241.397 217.317 241.009C216.938 240.62 216.363 240.426 215.591 240.426C214.791 240.426 214.164 240.601 213.709 240.952C213.255 241.302 212.935 241.676 212.75 242.074L211.159 241.506C211.444 240.843 211.822 240.327 212.296 239.957C212.774 239.583 213.295 239.323 213.858 239.176C214.426 239.025 214.985 238.949 215.534 238.949C215.885 238.949 216.287 238.991 216.742 239.077C217.201 239.157 217.644 239.325 218.07 239.581C218.501 239.837 218.858 240.223 219.142 240.739C219.426 241.255 219.569 241.946 219.569 242.812V250H217.892V248.523H217.807C217.694 248.759 217.504 249.013 217.239 249.283C216.974 249.553 216.621 249.782 216.181 249.972C215.74 250.161 215.203 250.256 214.569 250.256ZM214.824 248.75C215.487 248.75 216.046 248.62 216.5 248.359C216.96 248.099 217.305 247.763 217.537 247.351C217.774 246.939 217.892 246.506 217.892 246.051V244.517C217.821 244.602 217.665 244.68 217.424 244.751C217.187 244.818 216.912 244.877 216.6 244.929C216.292 244.976 215.991 245.019 215.698 245.057C215.409 245.09 215.175 245.118 214.995 245.142C214.559 245.199 214.152 245.291 213.773 245.419C213.399 245.542 213.096 245.729 212.864 245.98C212.637 246.226 212.523 246.562 212.523 246.989C212.523 247.571 212.739 248.011 213.169 248.31C213.605 248.603 214.157 248.75 214.824 248.75ZM227.031 254.318C226.222 254.318 225.526 254.214 224.943 254.006C224.361 253.802 223.875 253.532 223.487 253.196C223.104 252.865 222.798 252.509 222.571 252.131L223.906 251.193C224.058 251.392 224.25 251.619 224.482 251.875C224.714 252.135 225.031 252.36 225.433 252.55C225.84 252.744 226.373 252.841 227.031 252.841C227.912 252.841 228.639 252.628 229.212 252.202C229.785 251.776 230.071 251.108 230.071 250.199V247.983H229.929C229.806 248.182 229.631 248.428 229.403 248.722C229.181 249.01 228.859 249.268 228.438 249.496C228.021 249.718 227.457 249.83 226.747 249.83C225.866 249.83 225.076 249.621 224.375 249.205C223.679 248.788 223.127 248.182 222.72 247.386C222.318 246.591 222.116 245.625 222.116 244.489C222.116 243.371 222.313 242.398 222.706 241.57C223.099 240.736 223.646 240.092 224.347 239.638C225.047 239.179 225.857 238.949 226.776 238.949C227.486 238.949 228.049 239.067 228.466 239.304C228.887 239.536 229.209 239.801 229.432 240.099C229.659 240.393 229.834 240.634 229.957 240.824H230.128V239.091H231.747V250.312C231.747 251.25 231.534 252.012 231.108 252.599C230.687 253.191 230.118 253.625 229.403 253.899C228.693 254.179 227.902 254.318 227.031 254.318ZM226.974 248.324C227.647 248.324 228.215 248.17 228.679 247.862C229.143 247.554 229.496 247.112 229.737 246.534C229.979 245.956 230.099 245.265 230.099 244.46C230.099 243.674 229.981 242.981 229.744 242.379C229.508 241.778 229.157 241.307 228.693 240.966C228.229 240.625 227.656 240.455 226.974 240.455C226.264 240.455 225.672 240.634 225.199 240.994C224.73 241.354 224.377 241.837 224.141 242.443C223.909 243.049 223.793 243.722 223.793 244.46C223.793 245.218 223.911 245.888 224.148 246.47C224.389 247.048 224.744 247.502 225.213 247.834C225.687 248.161 226.274 248.324 226.974 248.324ZM239.389 250.227C238.338 250.227 237.431 249.995 236.669 249.531C235.911 249.062 235.327 248.409 234.915 247.571C234.508 246.728 234.304 245.748 234.304 244.631C234.304 243.513 234.508 242.528 234.915 241.676C235.327 240.819 235.9 240.152 236.634 239.673C237.372 239.19 238.234 238.949 239.219 238.949C239.787 238.949 240.348 239.044 240.902 239.233C241.456 239.422 241.96 239.73 242.415 240.156C242.869 240.578 243.232 241.136 243.501 241.832C243.771 242.528 243.906 243.385 243.906 244.403V245.114H235.497V243.665H242.202C242.202 243.049 242.079 242.5 241.832 242.017C241.591 241.534 241.245 241.153 240.795 240.874C240.35 240.594 239.825 240.455 239.219 240.455C238.551 240.455 237.973 240.62 237.486 240.952C237.003 241.278 236.631 241.705 236.371 242.23C236.11 242.756 235.98 243.319 235.98 243.92V244.886C235.98 245.71 236.122 246.409 236.406 246.982C236.695 247.55 237.095 247.983 237.607 248.281C238.118 248.575 238.712 248.722 239.389 248.722C239.83 248.722 240.227 248.66 240.582 248.537C240.942 248.409 241.252 248.22 241.513 247.969C241.773 247.713 241.974 247.396 242.116 247.017L243.736 247.472C243.565 248.021 243.279 248.504 242.876 248.92C242.474 249.332 241.977 249.654 241.385 249.886C240.793 250.114 240.128 250.227 239.389 250.227ZM163.485 274.256C162.793 274.256 162.166 274.125 161.602 273.865C161.039 273.6 160.592 273.219 160.26 272.722C159.929 272.22 159.763 271.614 159.763 270.903C159.763 270.278 159.886 269.772 160.132 269.384C160.378 268.991 160.708 268.683 161.119 268.46C161.531 268.238 161.986 268.072 162.483 267.963C162.985 267.849 163.489 267.759 163.996 267.693C164.659 267.608 165.196 267.544 165.608 267.501C166.025 267.454 166.328 267.376 166.517 267.267C166.711 267.158 166.808 266.969 166.808 266.699V266.642C166.808 265.941 166.617 265.397 166.233 265.009C165.854 264.62 165.279 264.426 164.507 264.426C163.707 264.426 163.08 264.601 162.625 264.952C162.171 265.302 161.851 265.676 161.666 266.074L160.075 265.506C160.36 264.843 160.738 264.327 161.212 263.957C161.69 263.583 162.211 263.323 162.774 263.176C163.343 263.025 163.901 262.949 164.45 262.949C164.801 262.949 165.203 262.991 165.658 263.077C166.117 263.157 166.56 263.325 166.986 263.581C167.417 263.837 167.774 264.223 168.058 264.739C168.343 265.255 168.485 265.946 168.485 266.812V274H166.808V272.523H166.723C166.61 272.759 166.42 273.013 166.155 273.283C165.89 273.553 165.537 273.782 165.097 273.972C164.656 274.161 164.119 274.256 163.485 274.256ZM163.74 272.75C164.403 272.75 164.962 272.62 165.416 272.359C165.876 272.099 166.221 271.763 166.453 271.351C166.69 270.939 166.808 270.506 166.808 270.051V268.517C166.737 268.602 166.581 268.68 166.34 268.751C166.103 268.818 165.828 268.877 165.516 268.929C165.208 268.976 164.907 269.019 164.614 269.057C164.325 269.09 164.091 269.118 163.911 269.142C163.475 269.199 163.068 269.291 162.689 269.419C162.315 269.542 162.012 269.729 161.78 269.98C161.553 270.226 161.439 270.562 161.439 270.989C161.439 271.571 161.655 272.011 162.085 272.31C162.521 272.603 163.073 272.75 163.74 272.75ZM180.074 263.091L176.04 274H174.335L170.301 263.091H172.119L175.131 271.784H175.244L178.256 263.091H180.074ZM185.164 274.256C184.473 274.256 183.846 274.125 183.282 273.865C182.719 273.6 182.271 273.219 181.94 272.722C181.608 272.22 181.443 271.614 181.443 270.903C181.443 270.278 181.566 269.772 181.812 269.384C182.058 268.991 182.387 268.683 182.799 268.46C183.211 268.238 183.666 268.072 184.163 267.963C184.665 267.849 185.169 267.759 185.676 267.693C186.338 267.608 186.876 267.544 187.288 267.501C187.704 267.454 188.008 267.376 188.197 267.267C188.391 267.158 188.488 266.969 188.488 266.699V266.642C188.488 265.941 188.296 265.397 187.913 265.009C187.534 264.62 186.959 264.426 186.187 264.426C185.387 264.426 184.759 264.601 184.305 264.952C183.85 265.302 183.531 265.676 183.346 266.074L181.755 265.506C182.039 264.843 182.418 264.327 182.892 263.957C183.37 263.583 183.891 263.323 184.454 263.176C185.022 263.025 185.581 262.949 186.13 262.949C186.481 262.949 186.883 262.991 187.338 263.077C187.797 263.157 188.24 263.325 188.666 263.581C189.097 263.837 189.454 264.223 189.738 264.739C190.022 265.255 190.164 265.946 190.164 266.812V274H188.488V272.523H188.403C188.289 272.759 188.1 273.013 187.835 273.283C187.57 273.553 187.217 273.782 186.776 273.972C186.336 274.161 185.799 274.256 185.164 274.256ZM185.42 272.75C186.083 272.75 186.642 272.62 187.096 272.359C187.555 272.099 187.901 271.763 188.133 271.351C188.37 270.939 188.488 270.506 188.488 270.051V268.517C188.417 268.602 188.261 268.68 188.019 268.751C187.783 268.818 187.508 268.877 187.195 268.929C186.888 268.976 186.587 269.019 186.294 269.057C186.005 269.09 185.77 269.118 185.59 269.142C185.155 269.199 184.748 269.291 184.369 269.419C183.995 269.542 183.692 269.729 183.46 269.98C183.232 270.226 183.119 270.562 183.119 270.989C183.119 271.571 183.334 272.011 183.765 272.31C184.201 272.603 184.752 272.75 185.42 272.75ZM193.224 274V263.091H194.9V274H193.224ZM194.076 261.273C193.749 261.273 193.467 261.161 193.231 260.939C192.999 260.716 192.883 260.449 192.883 260.136C192.883 259.824 192.999 259.556 193.231 259.334C193.467 259.111 193.749 259 194.076 259C194.403 259 194.682 259.111 194.914 259.334C195.151 259.556 195.269 259.824 195.269 260.136C195.269 260.449 195.151 260.716 194.914 260.939C194.682 261.161 194.403 261.273 194.076 261.273ZM199.646 259.455V274H197.97V259.455H199.646ZM205.926 274.256C205.235 274.256 204.607 274.125 204.044 273.865C203.48 273.6 203.033 273.219 202.702 272.722C202.37 272.22 202.204 271.614 202.204 270.903C202.204 270.278 202.327 269.772 202.574 269.384C202.82 268.991 203.149 268.683 203.561 268.46C203.973 268.238 204.427 268.072 204.925 267.963C205.426 267.849 205.931 267.759 206.437 267.693C207.1 267.608 207.638 267.544 208.05 267.501C208.466 267.454 208.769 267.376 208.959 267.267C209.153 267.158 209.25 266.969 209.25 266.699V266.642C209.25 265.941 209.058 265.397 208.675 265.009C208.296 264.62 207.72 264.426 206.949 264.426C206.148 264.426 205.521 264.601 205.067 264.952C204.612 265.302 204.292 265.676 204.108 266.074L202.517 265.506C202.801 264.843 203.18 264.327 203.653 263.957C204.131 263.583 204.652 263.323 205.216 263.176C205.784 263.025 206.343 262.949 206.892 262.949C207.242 262.949 207.645 262.991 208.099 263.077C208.559 263.157 209.001 263.325 209.427 263.581C209.858 263.837 210.216 264.223 210.5 264.739C210.784 265.255 210.926 265.946 210.926 266.812V274H209.25V272.523H209.165C209.051 272.759 208.862 273.013 208.596 273.283C208.331 273.553 207.979 273.782 207.538 273.972C207.098 274.161 206.56 274.256 205.926 274.256ZM206.182 272.75C206.845 272.75 207.403 272.62 207.858 272.359C208.317 272.099 208.663 271.763 208.895 271.351C209.131 270.939 209.25 270.506 209.25 270.051V268.517C209.179 268.602 209.023 268.68 208.781 268.751C208.544 268.818 208.27 268.877 207.957 268.929C207.649 268.976 207.349 269.019 207.055 269.057C206.766 269.09 206.532 269.118 206.352 269.142C205.916 269.199 205.509 269.291 205.131 269.419C204.756 269.542 204.453 269.729 204.221 269.98C203.994 270.226 203.881 270.562 203.881 270.989C203.881 271.571 204.096 272.011 204.527 272.31C204.962 272.603 205.514 272.75 206.182 272.75ZM214.213 274V259.455H215.889V264.824H216.031C216.154 264.634 216.324 264.393 216.542 264.099C216.765 263.801 217.082 263.536 217.494 263.304C217.91 263.067 218.474 262.949 219.184 262.949C220.103 262.949 220.912 263.179 221.613 263.638C222.314 264.097 222.861 264.748 223.254 265.591C223.647 266.434 223.843 267.428 223.843 268.574C223.843 269.729 223.647 270.731 223.254 271.578C222.861 272.421 222.316 273.074 221.62 273.538C220.924 273.998 220.122 274.227 219.213 274.227C218.512 274.227 217.951 274.111 217.529 273.879C217.108 273.643 216.784 273.375 216.556 273.077C216.329 272.774 216.154 272.523 216.031 272.324H215.832V274H214.213ZM215.86 268.545C215.86 269.369 215.981 270.096 216.222 270.726C216.464 271.351 216.817 271.841 217.281 272.196C217.745 272.546 218.313 272.722 218.985 272.722C219.686 272.722 220.271 272.537 220.74 272.168C221.213 271.794 221.568 271.292 221.805 270.662C222.046 270.027 222.167 269.322 222.167 268.545C222.167 267.778 222.049 267.087 221.812 266.472C221.58 265.851 221.227 265.361 220.754 265.001C220.285 264.637 219.695 264.455 218.985 264.455C218.303 264.455 217.731 264.627 217.267 264.973C216.802 265.314 216.452 265.792 216.215 266.408C215.979 267.018 215.86 267.731 215.86 268.545ZM228.083 259.455V274H226.407V259.455H228.083ZM235.727 274.227C234.676 274.227 233.769 273.995 233.007 273.531C232.249 273.062 231.665 272.409 231.253 271.571C230.845 270.728 230.642 269.748 230.642 268.631C230.642 267.513 230.845 266.528 231.253 265.676C231.665 264.819 232.238 264.152 232.971 263.673C233.71 263.19 234.572 262.949 235.557 262.949C236.125 262.949 236.686 263.044 237.24 263.233C237.794 263.422 238.298 263.73 238.753 264.156C239.207 264.578 239.569 265.136 239.839 265.832C240.109 266.528 240.244 267.385 240.244 268.403V269.114H231.835V267.665H238.54C238.54 267.049 238.416 266.5 238.17 266.017C237.929 265.534 237.583 265.153 237.133 264.874C236.688 264.594 236.163 264.455 235.557 264.455C234.889 264.455 234.311 264.62 233.824 264.952C233.341 265.278 232.969 265.705 232.709 266.23C232.448 266.756 232.318 267.319 232.318 267.92V268.886C232.318 269.71 232.46 270.409 232.744 270.982C233.033 271.55 233.433 271.983 233.944 272.281C234.456 272.575 235.05 272.722 235.727 272.722C236.167 272.722 236.565 272.66 236.92 272.537C237.28 272.409 237.59 272.22 237.851 271.969C238.111 271.713 238.312 271.396 238.454 271.017L240.074 271.472C239.903 272.021 239.617 272.504 239.214 272.92C238.812 273.332 238.315 273.654 237.723 273.886C237.131 274.114 236.466 274.227 235.727 274.227Z" fill="#333333"/>
</svg>
