<svg width="179" height="78" viewBox="0 0 179 78" fill="none" xmlns="http://www.w3.org/2000/svg">
<path d="M5.824 22.0603L7.09232 6.84183L7.24764 6.6077L0.672993 6.08742C0.517686 6.07007 0.362382 6.01802 0.207075 5.93131C0.0690251 5.82726 0 5.68852 0 5.51508C0 5.39369 0.0172563 5.30698 0.0517686 5.25495C0.103538 5.18556 0.189819 5.11619 0.310614 5.04682H1.42364C3.73599 5.04682 6.04831 5.09885 8.36066 5.2029C10.6902 5.28963 13.0112 5.36766 15.3236 5.43705C15.4271 5.52376 15.5134 5.62781 15.5824 5.74921C15.6687 5.85329 15.7118 5.966 15.7118 6.08742C15.7118 6.20881 15.6342 6.34754 15.4788 6.50365C15.3408 6.64238 15.2114 6.71175 15.0906 6.71175H8.4383C8.4383 7.63093 8.37792 8.51542 8.25711 9.36523C8.13632 10.1977 8.0414 11.0822 7.97238 12.0187C7.95513 12.1575 7.93787 12.4523 7.92062 12.9032C7.90336 13.3368 7.87749 13.8484 7.84296 14.4381C7.80844 15.0104 7.77393 15.6261 7.73942 16.2851C7.70491 16.9442 7.6704 17.5685 7.63589 18.1582C7.60138 18.7305 7.56687 19.2421 7.53236 19.693C7.49785 20.1266 7.4806 20.4128 7.4806 20.5515C7.46334 20.6903 7.46334 20.8984 7.4806 21.1759C7.51511 21.4533 7.54098 21.7482 7.55823 22.0603C7.57549 22.3725 7.56687 22.702 7.53236 23.0489C7.51511 23.3784 7.46334 23.6906 7.37704 23.9854C7.30802 24.2629 7.18723 24.4884 7.01466 24.6618C6.8421 24.8179 6.61776 24.8959 6.34168 24.8959C6.30717 24.8959 6.23815 24.8959 6.13459 24.8959C6.04831 24.8786 5.99655 24.8699 5.97929 24.8699L5.824 24.6098V22.0603ZM19.2062 19.1207C19.1717 19.0513 19.1113 18.956 19.025 18.8345C18.956 18.6958 18.8697 18.6264 18.7662 18.6264C18.4383 18.6264 18.1018 18.7738 17.7567 19.0687C17.4288 19.3462 17.1096 19.6843 16.799 20.0832C16.5056 20.4648 16.2468 20.855 16.0224 21.2539C15.8154 21.6528 15.6859 21.9649 15.6342 22.1904C15.5652 22.4159 15.5306 22.6847 15.5306 22.9969C15.5306 23.309 15.5047 23.6039 15.453 23.8814C15.4185 24.1588 15.3236 24.393 15.1683 24.5838C15.0302 24.7745 14.78 24.8699 14.4176 24.8699C14.1933 24.8699 14.038 24.8266 13.9517 24.7398C13.8827 24.6358 13.8481 24.471 13.8481 24.2456C13.9689 23.4131 14.0725 22.728 14.1588 22.1904C14.2623 21.6528 14.3486 21.1845 14.4176 20.7856C14.5039 20.3694 14.5815 19.9705 14.6505 19.589C14.7369 19.1901 14.8317 18.7131 14.9353 18.1582C15.0388 17.6032 15.151 16.9268 15.2718 16.129C15.3926 15.3139 15.5393 14.282 15.7118 13.0333C15.7118 12.7731 15.7291 12.4089 15.7636 11.9407C15.7981 11.4551 15.8585 10.9434 15.9448 10.4058C16.0483 9.85085 16.1777 9.29586 16.333 8.74089C16.4883 8.16858 16.6782 7.65695 16.9025 7.20604C17.1441 6.75512 17.4202 6.39091 17.7308 6.11342C18.0414 5.81858 18.4038 5.67118 18.8179 5.67118C19.1113 5.67118 19.3443 5.77523 19.5168 5.98334C19.7067 6.17413 19.8447 6.40825 19.931 6.68575C20.0345 6.96322 20.0949 7.25806 20.1122 7.57024C20.1294 7.86506 20.1381 8.10787 20.1381 8.29863C20.1381 8.73221 20.1035 9.14844 20.0345 9.54733C19.9655 9.92888 19.8792 10.3191 19.7757 10.718C19.6721 11.0996 19.56 11.4898 19.4392 11.8886C19.3184 12.2702 19.2148 12.6517 19.1286 13.0333L17.472 16.2071L16.5401 18.2362L16.6695 18.5223C17.0319 18.0888 17.4029 17.7593 17.7826 17.5338C18.1622 17.291 18.6368 17.1523 19.2062 17.1176C19.4651 17.1002 19.6808 17.1783 19.8533 17.3517C20.0431 17.5251 20.1984 17.7506 20.3193 18.0281C20.44 18.2882 20.5263 18.5571 20.5781 18.8345C20.6471 19.112 20.6902 19.3375 20.7075 19.5109C20.7075 19.615 20.6989 19.7797 20.6816 20.0052C20.6644 20.2307 20.6471 20.4908 20.6298 20.7856C20.6126 21.0805 20.5953 21.3926 20.5781 21.7222C20.5781 22.0343 20.5953 22.3292 20.6298 22.6067C20.6644 22.8841 20.7334 23.1269 20.8369 23.3351C20.9577 23.5258 21.113 23.6386 21.3028 23.6732C21.9759 23.5865 22.5712 23.4738 23.0889 23.3351C23.6238 23.179 24.0897 22.9709 24.4866 22.7107C24.8835 22.4332 25.2114 22.0864 25.4702 21.6701C25.7463 21.2539 25.9534 20.7423 26.0915 20.1353C26.2122 19.9618 26.3848 19.8751 26.6092 19.8751C26.8679 19.8751 27.032 19.9705 27.1009 20.1613C27.1873 20.352 27.2303 20.5602 27.2303 20.7856C27.2303 21.4793 27.006 22.095 26.5573 22.6327C26.126 23.153 25.5738 23.5865 24.9008 23.9334C24.2278 24.2802 23.503 24.5491 22.7265 24.7398C21.95 24.9133 21.2338 25 20.5781 25C20.1639 25 19.8792 24.8612 19.7239 24.5838C19.5686 24.2889 19.4737 23.9421 19.4392 23.5432C19.4219 23.1269 19.4219 22.7107 19.4392 22.2945C19.4564 21.8782 19.4564 21.5401 19.4392 21.2799C19.4392 21.1932 19.4305 21.0545 19.4133 20.8637C19.396 20.6556 19.3701 20.4388 19.3356 20.2133C19.3184 19.9879 19.2925 19.7711 19.258 19.5629C19.2235 19.3548 19.2062 19.2074 19.2062 19.1207ZM17.0837 12.8772C17.0837 12.9292 17.0837 13.016 17.0837 13.1373C17.0837 13.2587 17.0837 13.3715 17.0837 13.4755C17.1009 13.5796 17.1096 13.675 17.1096 13.7617C17.1096 13.8484 17.1096 13.9004 17.1096 13.9178L17.239 14.0479C17.4116 13.9438 17.5669 13.7617 17.7049 13.5016C17.8602 13.2414 17.9983 12.9292 18.1191 12.565C18.2399 12.2008 18.3434 11.8193 18.4297 11.4204C18.5332 11.0042 18.6195 10.5966 18.6885 10.1977C18.7575 9.79883 18.8093 9.43462 18.8438 9.1051C18.8956 8.77557 18.9215 8.50676 18.9215 8.29863C18.9215 8.22926 18.9129 8.09919 18.8956 7.90842C18.8956 7.71766 18.887 7.60493 18.8697 7.57024L18.7403 7.31009C18.3261 7.63961 18.0069 8.02982 17.7826 8.48073C17.5582 8.93165 17.3943 9.39994 17.2908 9.88554C17.1872 10.3711 17.1268 10.8741 17.1096 11.3944C17.0923 11.9147 17.0837 12.4089 17.0837 12.8772ZM26.7386 20.9157C26.773 20.8116 26.8247 20.6295 26.8939 20.3694C26.9801 20.0919 27.0577 19.7971 27.1269 19.4849C27.213 19.1727 27.2822 18.8779 27.3339 18.6004C27.4028 18.3056 27.4548 18.1061 27.4892 18.0021C27.5929 17.5858 27.7135 17.1349 27.8516 16.6493C28.0069 16.1637 28.2139 15.7128 28.4728 15.2966C28.7315 14.8803 29.0594 14.5421 29.4565 14.282C29.8705 14.0045 30.3797 13.8658 30.9837 13.8658C31.208 13.8658 31.3633 13.9525 31.4494 14.1259C31.5531 14.282 31.6392 14.4554 31.7084 14.6462C31.7084 14.7156 31.7084 14.8456 31.7084 15.0364C31.7256 15.2099 31.7344 15.3312 31.7344 15.4006C31.7344 16.1464 31.6567 16.8054 31.5014 17.3777C31.3633 17.95 31.1388 18.479 30.8284 18.9646C30.535 19.4502 30.1727 19.9098 29.7411 20.3434C29.3096 20.7596 28.818 21.2019 28.2658 21.6701C28.2486 21.7222 28.2226 21.8089 28.1882 21.9303C28.1535 22.0517 28.1362 22.1384 28.1362 22.1904V22.2424C28.1362 22.5546 28.1882 22.8061 28.2916 22.9969C28.3952 23.1876 28.5333 23.3437 28.7058 23.4651C28.8956 23.5692 29.1026 23.6386 29.3271 23.6732C29.5686 23.6906 29.8276 23.6992 30.1035 23.6992C30.9145 23.6992 31.6912 23.5865 32.4331 23.3611C33.1752 23.1356 33.8567 22.7714 34.478 22.2685C34.5644 22.1817 34.6677 22.0603 34.7886 21.9043C34.9267 21.7308 35.0648 21.5574 35.2026 21.384C35.3407 21.2105 35.4876 21.0631 35.6429 20.9417C35.7982 20.803 35.962 20.7336 36.1346 20.7336C36.3071 20.7336 36.4107 20.803 36.4452 20.9417C36.4797 21.0805 36.4969 21.2192 36.4969 21.358C36.4969 21.7395 36.3763 22.1037 36.1346 22.4505C35.9103 22.7801 35.6082 23.0836 35.2286 23.3611C34.8663 23.6212 34.4435 23.8554 33.9603 24.0635C33.4943 24.2716 33.0284 24.445 32.5627 24.5838C32.0967 24.7225 31.648 24.8266 31.2164 24.8959C30.8024 24.9653 30.4486 25 30.1554 25C29.2407 25 28.4729 24.8526 27.8516 24.5577C27.2475 24.2456 26.8335 23.6299 26.6092 22.7107L26.7386 20.9157ZM30.4401 15.7908C30.095 16.103 29.8188 16.3892 29.6118 16.6493C29.422 16.8921 29.2667 17.1523 29.1458 17.4298C29.0422 17.6899 28.9473 17.9761 28.8612 18.2882C28.792 18.6004 28.7143 18.9646 28.6282 19.3808C28.956 19.1207 29.2235 18.8606 29.4305 18.6004C29.655 18.3403 29.836 18.0714 29.9741 17.794C30.1122 17.5165 30.2156 17.2216 30.2848 16.9095C30.3537 16.5799 30.4056 16.2071 30.4401 15.7908ZM54.2538 20.6556L49.2063 23.9594H49.051C48.8785 23.9594 48.7059 23.916 48.5331 23.8293C48.378 23.7426 48.3004 23.5952 48.3004 23.3871C48.3004 23.2483 48.3348 23.1269 48.4037 23.0229C48.4901 22.9015 48.5935 22.7974 48.7144 22.7107C48.8525 22.6067 49.1027 22.4506 49.465 22.2424C49.8274 22.0343 50.2072 21.8089 50.604 21.5661C51.0008 21.3059 51.3806 21.0718 51.7429 20.8637C52.1225 20.6556 52.3814 20.5081 52.5195 20.4214C52.5884 20.352 52.6921 20.274 52.8299 20.1873C52.968 20.0832 53.0889 19.9879 53.1925 19.9011C53.3131 19.7971 53.4167 19.7104 53.5029 19.641C53.5893 19.5716 53.6325 19.5283 53.6325 19.5109L51.6393 15.4526C51.5531 15.3312 51.5012 15.2359 51.484 15.1665C51.484 15.0798 51.484 14.967 51.484 14.8283C51.484 14.308 51.7342 14.0479 52.2346 14.0479C52.3038 14.0479 52.4591 14.0999 52.7006 14.2039C52.9595 14.2907 53.2702 14.4207 53.6325 14.5942C53.9948 14.7503 54.3744 14.9237 54.7714 15.1145C55.1682 15.3052 55.5306 15.4787 55.8584 15.6347C56.1863 15.7908 56.4625 15.9296 56.6867 16.051C56.9112 16.155 57.0234 16.2071 57.0234 16.2071L59.327 13.8137C59.3787 13.6056 59.5255 13.3541 59.767 13.0593C60.0259 12.7645 60.2934 12.4523 60.5695 12.1228C60.8455 11.7933 61.0872 11.4638 61.2942 11.1342C61.5012 10.7874 61.6049 10.4752 61.6049 10.1977V10.1197L59.8189 5.93131C59.6464 5.53242 59.534 5.10753 59.4823 4.65661C59.4478 4.18835 59.4306 3.72875 59.4306 3.27784C59.4306 2.89629 59.491 2.51474 59.6116 2.13319C59.7325 1.7343 59.9051 1.37877 60.1293 1.0666C60.371 0.754422 60.6557 0.502948 60.9836 0.312176C61.3114 0.104058 61.6997 0 62.1485 0C62.6142 0 62.994 0.138744 63.2874 0.416233C63.5978 0.676378 63.8395 1.0059 64.0121 1.40479C64.2019 1.80367 64.3312 2.22858 64.4004 2.6795C64.4693 3.11308 64.5038 3.51197 64.5038 3.87617C64.5038 4.91674 64.3832 5.91397 64.1414 6.86783C63.9172 7.80437 63.6066 8.76692 63.2098 9.75546V10.1197C63.6066 10.8654 64.0121 11.6372 64.4261 12.435C64.8404 13.2327 65.2115 14.0652 65.5394 14.9324C65.8672 15.7822 66.1347 16.6406 66.3417 17.5078C66.5487 18.3576 66.6523 19.2161 66.6523 20.0832C66.6523 20.7596 66.5402 21.3926 66.3157 21.9823C66.1087 22.5546 65.8068 23.0576 65.4097 23.4911C65.0129 23.9247 64.5298 24.2629 63.9604 24.5057C63.408 24.7485 62.787 24.8699 62.0965 24.8699C61.3202 24.8699 60.578 24.7572 59.8706 24.5317C59.1804 24.2889 58.5074 23.9767 57.8517 23.5952C57.2131 23.1963 56.6006 22.7454 56.0138 22.2424C55.4444 21.7395 54.9093 21.2105 54.4088 20.6556H54.2538ZM55.5478 19.7711C55.5478 19.7884 55.591 19.8491 55.6774 19.9532C55.7808 20.0572 55.8929 20.1786 56.0138 20.3174C56.1519 20.4388 56.29 20.5688 56.428 20.7076C56.5659 20.8463 56.6867 20.9591 56.7904 21.0458C56.8421 21.0978 56.9285 21.1758 57.0491 21.2799C57.1872 21.3666 57.3165 21.4707 57.4374 21.5921C57.5755 21.6961 57.6963 21.8002 57.7997 21.9043C57.9206 21.991 57.9982 22.043 58.0327 22.0603C58.1363 22.1124 58.2917 22.1991 58.4987 22.3205C58.7057 22.4419 58.9129 22.5633 59.12 22.6847C59.327 22.8061 59.5255 22.9188 59.7153 23.0229C59.9051 23.1269 60.0172 23.1876 60.0516 23.205C60.4487 23.3784 60.811 23.4911 61.1389 23.5432C61.484 23.5779 61.8291 23.5952 62.1742 23.5952C62.6919 23.5952 63.1321 23.4998 63.4944 23.309C63.874 23.1009 64.1846 22.8321 64.4261 22.5026C64.6678 22.1557 64.8404 21.7655 64.944 21.3319C65.0646 20.881 65.1251 20.4301 65.1251 19.9792C65.1251 19.4936 65.0819 18.9906 64.9957 18.4703C64.9265 17.95 64.8059 17.4558 64.6334 16.9875L62.3815 11.5505L60.3366 14.4381L55.5478 19.667V19.7711ZM53.5289 16.3371C53.5289 16.3718 53.5376 16.4412 53.5548 16.5453C53.5893 16.632 53.6153 16.6927 53.6325 16.7274C53.7014 16.8488 53.7878 17.0135 53.8912 17.2216C54.0121 17.4298 54.1242 17.6292 54.2278 17.82C54.3487 17.9934 54.4436 18.1582 54.5125 18.3142C54.5989 18.453 54.6506 18.5223 54.6678 18.5223H54.7714C54.8231 18.5223 54.9268 18.453 55.0818 18.3142C55.2371 18.1582 55.4012 18.0021 55.5738 17.846C55.7463 17.6725 55.9016 17.5165 56.0397 17.3777C56.1778 17.2216 56.2555 17.1349 56.2727 17.1176L56.1431 16.9875L53.8912 16.3371H53.5289ZM60.8025 3.25181C60.8025 4.22304 60.9491 5.10753 61.2425 5.90531C61.5357 6.68575 61.9068 7.50088 62.3555 8.35068C62.4416 8.29863 62.5193 8.19458 62.5885 8.0385C62.6574 7.86506 62.7178 7.68295 62.7695 7.49219C62.8215 7.28409 62.8644 7.0933 62.8991 6.91988C62.9336 6.74644 62.9596 6.64238 62.9768 6.6077C62.9768 6.57302 62.9853 6.48631 63.0025 6.34754C63.0372 6.20881 63.0629 6.05273 63.0802 5.87929C63.0974 5.68852 63.1146 5.50642 63.1321 5.33298C63.1666 5.15956 63.1923 5.02948 63.2098 4.94277V4.86472C63.2098 4.79535 63.201 4.57856 63.1838 4.21435C63.1838 3.85015 63.1578 3.45994 63.1061 3.04371C63.0544 2.61013 62.9596 2.22858 62.8215 1.89906C62.6834 1.5522 62.4764 1.37877 62.2002 1.37877C61.924 1.37877 61.691 1.4308 61.5012 1.53486C61.3114 1.63892 61.1649 1.77766 61.0612 1.95109C60.9751 2.12452 60.9059 2.32397 60.8542 2.54943C60.8198 2.77489 60.8025 3.00902 60.8025 3.25181ZM67.6876 20.9157C67.7221 20.8116 67.774 20.6295 67.8429 20.3694C67.9294 20.0919 68.007 19.7971 68.0759 19.4849C68.1621 19.1727 68.2313 18.8779 68.2829 18.6004C68.3521 18.3056 68.4038 18.1061 68.4383 18.0021C68.5419 17.5858 68.6625 17.1349 68.8006 16.6493C68.9559 16.1637 69.1632 15.7128 69.4219 15.2966C69.6808 14.8803 70.0087 14.5421 70.4055 14.282C70.8198 14.0045 71.3287 13.8658 71.9328 13.8658C72.157 13.8658 72.3123 13.9525 72.3987 14.1259C72.5021 14.282 72.5885 14.4554 72.6574 14.6462C72.6574 14.7156 72.6574 14.8456 72.6574 15.0364C72.6747 15.2099 72.6834 15.3312 72.6834 15.4006C72.6834 16.1464 72.6057 16.8054 72.4504 17.3777C72.3123 17.95 72.0881 18.479 71.7774 18.9646C71.484 19.4502 71.1217 19.9098 70.6902 20.3434C70.2589 20.7596 69.767 21.2019 69.2149 21.6701C69.1977 21.7222 69.1717 21.8089 69.1372 21.9303C69.1028 22.0517 69.0855 22.1384 69.0855 22.1904V22.2424C69.0855 22.5546 69.1372 22.8061 69.2406 22.9969C69.3442 23.1876 69.4823 23.3437 69.6549 23.4651C69.8446 23.5692 70.0517 23.6386 70.2762 23.6732C70.5176 23.6906 70.7766 23.6992 71.0525 23.6992C71.8636 23.6992 72.6402 23.5865 73.3821 23.3611C74.1243 23.1356 74.806 22.7714 75.427 22.2685C75.5134 22.1817 75.6168 22.0603 75.7376 21.9043C75.8757 21.7308 76.0138 21.5574 76.1519 21.384C76.29 21.2105 76.4366 21.0631 76.5919 20.9417C76.7472 20.803 76.9111 20.7336 77.0836 20.7336C77.2562 20.7336 77.3598 20.803 77.3942 20.9417C77.4287 21.0805 77.4462 21.2192 77.4462 21.358C77.4462 21.7395 77.3253 22.1037 77.0836 22.4505C76.8594 22.7801 76.5575 23.0836 76.1776 23.3611C75.8153 23.6212 75.3925 23.8554 74.9093 24.0635C74.4434 24.2716 73.9777 24.445 73.5117 24.5838C73.0457 24.7225 72.597 24.8266 72.1657 24.8959C71.7515 24.9653 71.3976 25 71.1045 25C70.1898 25 69.4219 24.8526 68.8006 24.5577C68.1968 24.2456 67.7825 23.6299 67.5583 22.7107L67.6876 20.9157ZM71.3891 15.7908C71.044 16.103 70.7678 16.3892 70.5608 16.6493C70.3711 16.8921 70.2157 17.1523 70.0949 17.4298C69.9912 17.6899 69.8963 17.9761 69.8102 18.2882C69.741 18.6004 69.6636 18.9646 69.5772 19.3808C69.9051 19.1207 70.1725 18.8606 70.3795 18.6004C70.604 18.3403 70.7851 18.0714 70.9232 17.794C71.0613 17.5165 71.1649 17.2216 71.2338 16.9095C71.3027 16.5799 71.3547 16.2071 71.3891 15.7908ZM77.4202 20.2653C77.4202 20.2653 77.4287 20.2567 77.4462 20.2393C77.4806 20.2047 77.5064 20.1786 77.5236 20.1613C77.5583 20.0052 77.6272 19.7364 77.7309 19.3548C77.8342 18.9733 77.9466 18.5657 78.0672 18.1321C78.1881 17.6812 78.3002 17.265 78.4038 16.8834C78.5247 16.5019 78.6109 16.2418 78.6625 16.103C78.6798 16.0336 78.7317 15.8862 78.8179 15.6608C78.9215 15.418 79.0336 15.1578 79.1545 14.8803C79.2753 14.6028 79.3959 14.3253 79.5168 14.0479C79.6377 13.7704 79.7238 13.5623 79.7758 13.4235C79.8964 13.1807 80.0777 12.8599 80.3191 12.461C80.5781 12.0621 80.8628 11.6892 81.1734 11.3423C81.5013 10.9781 81.8379 10.666 82.183 10.4058C82.5281 10.1283 82.8472 9.98959 83.1407 9.98959C83.296 9.98959 83.4168 10.033 83.503 10.1197C83.6066 10.2064 83.6755 10.3104 83.71 10.4318C83.762 10.5359 83.7964 10.6573 83.8136 10.796C83.8309 10.9348 83.8396 11.0562 83.8396 11.1602C83.8396 12.0621 83.71 12.9639 83.4513 13.8658C83.2096 14.7503 82.8732 15.6001 82.4417 16.4152C82.0105 17.2303 81.4925 18.0021 80.8887 18.7305C80.3019 19.4416 79.6806 20.0832 79.0251 20.6556C79.0076 20.7076 78.9819 20.8116 78.9475 20.9677C78.93 21.1238 78.9128 21.2366 78.8955 21.3059V21.358C78.8955 21.7048 78.9819 21.9823 79.1545 22.1904C79.3443 22.3985 79.5685 22.5546 79.8275 22.6587C80.0862 22.7454 80.3711 22.8061 80.6817 22.8408C81.0096 22.8755 81.32 22.8928 81.6134 22.8928C81.7687 22.8928 81.993 22.8148 82.2864 22.6587C82.597 22.5026 82.9077 22.3292 83.2183 22.1384C83.5462 21.9303 83.8653 21.7482 84.176 21.5921C84.4866 21.436 84.7196 21.358 84.8749 21.358C85.0302 21.358 85.1511 21.41 85.2373 21.514C85.3237 21.6181 85.3666 21.7482 85.3666 21.9043C85.3666 22.1644 85.1683 22.4419 84.7713 22.7367C84.3745 23.0315 83.9173 23.309 83.3994 23.5692C82.8817 23.812 82.3813 24.0201 81.8981 24.1935C81.4324 24.367 81.1217 24.4537 80.9664 24.4537C80.4487 24.5577 79.9656 24.5664 79.5168 24.4797C79.0681 24.3756 78.6798 24.2109 78.3519 23.9854C78.024 23.7426 77.7481 23.4565 77.5236 23.1269C77.3166 22.7801 77.1872 22.4245 77.1355 22.0603L77.4202 20.2653ZM82.3124 12.513C82.157 12.513 81.9757 12.6431 81.7687 12.9032C81.579 13.146 81.3892 13.4322 81.1994 13.7617C81.0096 14.0912 80.8368 14.4121 80.6817 14.7242C80.5436 15.0191 80.466 15.2185 80.4487 15.3226C80.3968 15.444 80.3191 15.6434 80.2158 15.9209C80.1121 16.1984 80.0085 16.4932 79.9051 16.8054C79.8015 17.1002 79.6981 17.3864 79.5945 17.6639C79.5081 17.9414 79.4479 18.1408 79.4132 18.2622H79.5428C79.5428 18.2622 79.5945 18.2015 79.6981 18.0801C79.8015 17.9414 79.9136 17.7853 80.0345 17.6119C80.1726 17.4384 80.3107 17.265 80.4487 17.0916C80.6041 16.9008 80.7162 16.7447 80.7851 16.6233C80.8543 16.5192 80.9492 16.3632 81.0698 16.155C81.1906 15.9296 81.2683 15.7908 81.3028 15.7388C81.3719 15.548 81.4668 15.2966 81.5874 14.9844C81.7083 14.6549 81.8204 14.334 81.924 14.0218C82.0277 13.7097 82.1138 13.4408 82.183 13.2154C82.2691 12.9726 82.3124 12.8339 82.3124 12.7992V12.513ZM84.8749 20.9157C84.9094 20.8116 84.9611 20.6295 85.0302 20.3694C85.1164 20.0919 85.194 19.7971 85.2632 19.4849C85.3494 19.1727 85.4186 18.8779 85.4702 18.6004C85.5392 18.3056 85.5911 18.1061 85.6256 18.0021C85.7292 17.5858 85.8498 17.1349 85.9879 16.6493C86.1432 16.1637 86.3502 15.7128 86.6092 15.2966C86.8679 14.8803 87.1957 14.5421 87.5928 14.282C88.0068 14.0045 88.516 13.8658 89.1198 13.8658C89.3443 13.8658 89.4996 13.9525 89.5858 14.1259C89.6894 14.282 89.7755 14.4554 89.8447 14.6462C89.8447 14.7156 89.8447 14.8456 89.8447 15.0364C89.8619 15.2099 89.8704 15.3312 89.8704 15.4006C89.8704 16.1464 89.793 16.8054 89.6377 17.3777C89.4996 17.95 89.2751 18.479 88.9647 18.9646C88.6713 19.4502 88.309 19.9098 87.8775 20.3434C87.446 20.7596 86.9543 21.2019 86.4022 21.6701C86.3847 21.7222 86.359 21.8089 86.3245 21.9303C86.2898 22.0517 86.2726 22.1384 86.2726 22.1904V22.2424C86.2726 22.5546 86.3245 22.8061 86.4279 22.9969C86.5315 23.1876 86.6696 23.3437 86.8422 23.4651C87.0319 23.5692 87.239 23.6386 87.4632 23.6732C87.7049 23.6906 87.9636 23.6992 88.2398 23.6992C89.0509 23.6992 89.8275 23.5865 90.5694 23.3611C91.3115 23.1356 91.993 22.7714 92.6143 22.2685C92.7007 22.1817 92.8041 22.0603 92.9249 21.9043C93.063 21.7308 93.2011 21.5574 93.339 21.384C93.4771 21.2105 93.6239 21.0631 93.7792 20.9417C93.9345 20.803 94.0983 20.7336 94.2709 20.7336C94.4434 20.7336 94.5471 20.803 94.5815 20.9417C94.616 21.0805 94.6332 21.2192 94.6332 21.358C94.6332 21.7395 94.5126 22.1037 94.2709 22.4505C94.0467 22.7801 93.7445 23.0836 93.3649 23.3611C93.0026 23.6212 92.5798 23.8554 92.0966 24.0635C91.6307 24.2716 91.1647 24.445 90.699 24.5838C90.233 24.7225 89.7843 24.8266 89.3528 24.8959C88.9388 24.9653 88.5849 25 88.2915 25C87.3771 25 86.6092 24.8526 85.9879 24.5577C85.3838 24.2456 84.9698 23.6299 84.7456 22.7107L84.8749 20.9157ZM88.5764 15.7908C88.2313 16.103 87.9551 16.3892 87.7481 16.6493C87.5583 16.8921 87.403 17.1523 87.2822 17.4298C87.1785 17.6899 87.0836 17.9761 86.9975 18.2882C86.9283 18.6004 86.8506 18.9646 86.7645 19.3808C87.0924 19.1207 87.3598 18.8606 87.5668 18.6004C87.7911 18.3403 87.9724 18.0714 88.1105 17.794C88.2486 17.5165 88.3519 17.2216 88.4211 16.9095C88.49 16.5799 88.5417 16.2071 88.5764 15.7908ZM94.5556 21.41C94.642 20.5255 94.8402 19.6843 95.1509 18.8866C95.4788 18.0888 95.8498 17.4037 96.2641 16.8314C96.6954 16.2591 97.1269 15.8168 97.5581 15.5047C98.0069 15.1925 98.3952 15.0971 98.723 15.2185C98.8092 15.1665 98.8784 15.1231 98.93 15.0884C98.9992 15.0364 99.0509 14.9931 99.0854 14.9584C99.1371 14.9063 99.189 14.8716 99.2407 14.8543C99.3096 14.8196 99.4048 14.8023 99.5254 14.8023C99.7671 14.8023 99.9829 14.8803 100.173 15.0364C100.362 15.1925 100.526 15.3833 100.664 15.6087C100.82 15.8342 100.932 16.077 101.001 16.3371C101.087 16.5799 101.13 16.8054 101.13 17.0135C101.13 17.239 101.044 17.3951 100.871 17.4818C100.699 17.5685 100.501 17.6119 100.276 17.6119C100.138 17.6119 100.017 17.5858 99.9137 17.5338C99.81 17.4644 99.7151 17.3864 99.629 17.2997C99.5598 17.213 99.4824 17.1263 99.396 17.0395C99.3096 16.9528 99.1975 16.8921 99.0594 16.8574H99.0337H98.956C98.9388 16.8748 98.8956 16.9181 98.8267 16.9875C98.7747 17.0395 98.7403 17.0829 98.723 17.1176C98.3607 17.5511 98.0241 17.9414 97.7134 18.2882C97.4028 18.6177 97.1269 18.956 96.8851 19.3028C96.6609 19.6497 96.4796 20.0225 96.3418 20.4214C96.2209 20.8203 96.1605 21.2972 96.1605 21.8522C96.1605 21.9043 96.1605 21.9823 96.1605 22.0864C96.1605 22.1904 96.1605 22.2945 96.1605 22.3985C96.1777 22.5026 96.1864 22.6067 96.1864 22.7107C96.1864 22.8148 96.1864 22.8928 96.1864 22.9448C96.2209 23.1183 96.3158 23.2483 96.4711 23.3351C96.6437 23.4218 96.799 23.5085 96.9371 23.5952C96.9888 23.5952 97.1181 23.6039 97.3254 23.6212C97.5324 23.6212 97.653 23.6212 97.6877 23.6212C98.3088 23.6212 99.0422 23.5258 99.8877 23.3351C100.733 23.1269 101.579 22.8581 102.425 22.5286C103.287 22.1991 104.098 21.8089 104.857 21.358C105.617 20.8897 106.221 20.4041 106.669 19.9011C106.773 19.7624 106.859 19.5716 106.928 19.3288C107.015 19.086 107.101 18.8519 107.187 18.6264C107.291 18.3836 107.403 18.1755 107.524 18.0021C107.645 17.8286 107.826 17.7419 108.067 17.7419C108.292 17.7419 108.43 17.8373 108.481 18.0281C108.551 18.2015 108.585 18.375 108.585 18.5484C108.585 19.1033 108.447 19.6063 108.171 20.0572C107.912 20.5081 107.584 20.9157 107.187 21.2799C106.79 21.6441 106.35 21.9649 105.867 22.2424C105.401 22.5199 104.953 22.7541 104.521 22.9448C104.4 22.9795 104.133 23.0749 103.719 23.231C103.322 23.3871 102.891 23.5519 102.425 23.7253C101.959 23.8987 101.501 24.0721 101.053 24.2456C100.621 24.4017 100.302 24.5231 100.095 24.6098C99.8188 24.6965 99.5858 24.7659 99.396 24.8179C99.2062 24.8526 99.0337 24.8873 98.8784 24.9219C98.723 24.9566 98.559 24.974 98.3864 24.974C98.2311 24.9913 98.0413 25 97.8171 25C97.1958 25 96.6781 24.9219 96.2641 24.7659C95.8671 24.6098 95.5479 24.3843 95.3062 24.0895C95.0647 23.7773 94.8834 23.4044 94.7628 22.9709C94.6592 22.5199 94.59 21.9996 94.5556 21.41ZM108.352 18.0021C108.386 17.9327 108.456 17.8286 108.559 17.6899C108.663 17.5338 108.714 17.4037 108.714 17.2997V17.2216C108.714 17.2043 108.697 17.1869 108.663 17.1696C108.628 17.1349 108.602 17.1176 108.585 17.1176H108.119C107.67 17.2563 107.17 17.3517 106.618 17.4037C106.048 17.4558 105.505 17.4731 104.987 17.4558C104.452 17.4384 103.995 17.3951 103.615 17.3257C103.236 17.239 103.011 17.1436 102.942 17.0395C102.873 16.9355 103.003 16.8141 103.331 16.6753C103.658 16.5192 104.279 16.3632 105.194 16.2071C105.246 16.2071 105.367 16.1897 105.556 16.155C105.729 16.103 105.928 16.0597 106.152 16.025C106.359 15.9903 106.557 15.9556 106.747 15.9209C106.937 15.8689 107.058 15.8429 107.11 15.8429C107.179 15.8255 107.325 15.8168 107.55 15.8168C107.774 15.7995 107.998 15.7822 108.223 15.7648C108.464 15.7475 108.689 15.7388 108.896 15.7388C109.12 15.7388 109.275 15.7388 109.362 15.7388L109.491 15.5827L111.51 12.1748C111.579 12.0534 111.7 11.958 111.872 11.8886C112.062 11.8193 112.209 11.7846 112.312 11.7846C112.537 11.7846 112.692 11.88 112.778 12.0708C112.865 12.2442 112.908 12.4176 112.908 12.591C112.908 12.6084 112.899 12.6257 112.882 12.6431C112.882 12.6604 112.882 12.6777 112.882 12.6951V12.7992L111.743 15.5827V15.7388C111.777 15.6347 111.838 15.5827 111.924 15.5827C112.028 15.5827 112.105 15.5827 112.157 15.5827C112.416 15.5827 112.666 15.6694 112.908 15.8429C113.149 16.0163 113.27 16.2504 113.27 16.5453C113.27 16.684 113.227 16.7967 113.141 16.8834C113.054 16.9702 112.951 17.0395 112.83 17.0916C112.709 17.1436 112.58 17.1869 112.442 17.2216C112.304 17.239 112.183 17.2477 112.079 17.2477C111.872 17.2477 111.674 17.2216 111.484 17.1696C111.311 17.1176 111.122 17.0916 110.915 17.0916C110.725 17.0916 110.552 17.1956 110.397 17.4037C110.242 17.5945 110.095 17.8546 109.957 18.1842C109.836 18.4964 109.732 18.8519 109.646 19.2508C109.56 19.6497 109.482 20.0399 109.413 20.4214C109.344 20.803 109.292 21.1585 109.258 21.488C109.241 21.8175 109.232 22.069 109.232 22.2424C109.232 22.3118 109.232 22.4506 109.232 22.6587C109.249 22.8668 109.258 23.0055 109.258 23.0749C109.275 23.179 109.318 23.2744 109.387 23.3611C109.456 23.4304 109.525 23.5085 109.595 23.5952H110.19C110.88 23.5952 111.562 23.4391 112.235 23.1269C112.925 22.8148 113.572 22.4592 114.176 22.0603C114.211 22.043 114.288 21.9649 114.409 21.8262C114.547 21.6701 114.694 21.5227 114.849 21.384C115.004 21.2279 115.142 21.0891 115.263 20.9677C115.401 20.8463 115.496 20.7856 115.548 20.7856C115.669 20.7856 115.781 20.8463 115.884 20.9677C115.988 21.0891 116.04 21.2192 116.04 21.358C116.04 21.6875 115.919 22.0083 115.677 22.3205C115.453 22.6327 115.16 22.9275 114.797 23.205C114.435 23.4651 114.021 23.7079 113.555 23.9334C113.089 24.1588 112.623 24.3496 112.157 24.5057C111.708 24.6618 111.277 24.7832 110.863 24.8699C110.466 24.9566 110.138 25 109.879 25C109.638 25 109.387 24.974 109.129 24.9219C108.87 24.8526 108.637 24.7485 108.43 24.6098C108.223 24.471 108.05 24.2976 107.912 24.0895C107.774 23.8814 107.705 23.6212 107.705 23.309V20.4214L108.352 18.0021ZM115.418 19.5109C115.436 19.4242 115.488 19.2681 115.574 19.0427C115.66 18.8172 115.746 18.5744 115.833 18.3142C115.936 18.0541 116.031 17.8113 116.117 17.5858C116.203 17.3604 116.264 17.2043 116.299 17.1176C116.402 16.8401 116.497 16.658 116.583 16.5713C116.687 16.4846 116.868 16.4412 117.127 16.4412C117.403 16.4412 117.584 16.5366 117.67 16.7274C117.757 16.9181 117.8 17.1436 117.8 17.4037C117.8 17.8546 117.731 18.2709 117.593 18.6524C117.472 19.0166 117.334 19.3895 117.179 19.7711C117.023 20.1353 116.877 20.5341 116.739 20.9677C116.618 21.384 116.557 21.8696 116.557 22.4246C116.557 22.4939 116.557 22.598 116.557 22.7367C116.557 22.8581 116.566 22.9882 116.583 23.1269C116.601 23.2483 116.635 23.3611 116.687 23.4651C116.739 23.5519 116.808 23.5952 116.894 23.5952C117.342 23.5952 117.791 23.5085 118.24 23.3351C118.706 23.1443 119.154 22.9275 119.586 22.6847C120.035 22.4245 120.457 22.1471 120.854 21.8522C121.268 21.5401 121.639 21.2712 121.967 21.0458C122.088 20.9591 122.174 20.8724 122.226 20.7856C122.295 20.6989 122.355 20.6209 122.407 20.5515C122.459 20.4648 122.52 20.3954 122.588 20.3434C122.675 20.274 122.804 20.2393 122.977 20.2393C123.201 20.2393 123.382 20.2914 123.52 20.3954C123.676 20.4821 123.753 20.6469 123.753 20.8897C123.753 20.9937 123.745 21.0891 123.727 21.1759C123.727 21.2626 123.684 21.3406 123.598 21.41C123.581 21.462 123.512 21.5314 123.391 21.6181C123.287 21.7048 123.175 21.8002 123.054 21.9043C122.934 21.991 122.821 22.0777 122.718 22.1644C122.614 22.2338 122.537 22.2771 122.485 22.2945C122.468 22.2945 122.416 22.3205 122.329 22.3725C122.261 22.4072 122.217 22.4246 122.2 22.4246C122.183 22.4419 122.157 22.4679 122.122 22.5026C122.105 22.5199 122.097 22.5373 122.097 22.5546C121.734 22.8321 121.337 23.1183 120.906 23.4131C120.492 23.6906 120.052 23.9507 119.586 24.1935C119.12 24.419 118.637 24.6098 118.136 24.7659C117.653 24.9219 117.17 25 116.687 25C116.273 25 115.953 24.8959 115.729 24.6878C115.522 24.4623 115.367 24.1849 115.263 23.8554C115.16 23.5258 115.099 23.179 115.082 22.8148C115.065 22.4505 115.056 22.1211 115.056 21.8262L115.418 19.5109ZM116.661 12.6691C116.661 12.3569 116.721 12.1488 116.842 12.0447C116.963 11.9407 117.179 11.8886 117.489 11.8886C117.645 11.8886 117.8 11.9233 117.955 11.9927C118.11 12.0447 118.188 12.1835 118.188 12.4089C118.188 12.6344 118.076 12.8425 117.852 13.0333C117.645 13.2241 117.437 13.3195 117.23 13.3195C117.023 13.3195 116.877 13.2587 116.79 13.1373C116.704 12.9986 116.661 12.8425 116.661 12.6691ZM124.504 22.9448C124.504 22.9275 124.512 22.8668 124.53 22.7627C124.547 22.6587 124.564 22.5546 124.582 22.4505C124.599 22.3292 124.616 22.2251 124.633 22.1384C124.651 22.0343 124.659 21.9649 124.659 21.9303V21.8262V21.6701L125.022 20.0312C125.315 19.4069 125.617 18.8085 125.928 18.2362C126.255 17.6639 126.626 17.1609 127.041 16.7274C127.455 16.2938 127.929 15.9469 128.464 15.6868C129.016 15.4266 129.681 15.2966 130.457 15.2966C130.612 15.2966 130.803 15.3486 131.027 15.4526C131.268 15.5394 131.501 15.6521 131.726 15.7908C131.967 15.9296 132.183 16.077 132.373 16.2331C132.58 16.3718 132.735 16.5019 132.839 16.6233C133.374 16.5366 133.762 16.4932 134.003 16.4932C134.245 16.4759 134.452 16.4672 134.625 16.4672C134.797 16.4499 134.978 16.4152 135.168 16.3632C135.375 16.3111 135.686 16.1984 136.1 16.025C136.393 15.9382 136.678 15.8949 136.954 15.8949C137.075 15.8949 137.187 15.9469 137.291 16.051C137.411 16.155 137.472 16.2765 137.472 16.4152C137.472 16.5886 137.411 16.7447 137.291 16.8834C137.17 17.0222 137.023 17.1089 136.851 17.1436L133.615 17.872L133.33 18.0021C133.313 18.9386 133.106 19.8318 132.709 20.6816C132.312 21.5314 131.786 22.2771 131.13 22.9188C130.475 23.5605 129.715 24.0721 128.852 24.4537C127.99 24.8179 127.092 25 126.161 25C126.091 25 125.979 24.9913 125.824 24.974C125.669 24.974 125.565 24.974 125.513 24.974C125.134 24.8179 124.866 24.5317 124.711 24.1155C124.573 23.6992 124.504 23.309 124.504 22.9448ZM126.161 23.4651C126.178 23.5519 126.247 23.5952 126.368 23.5952C126.488 23.5952 126.575 23.5952 126.626 23.5952C127.248 23.5952 127.886 23.4391 128.542 23.1269C129.198 22.7974 129.784 22.3812 130.302 21.8782C130.837 21.358 131.268 20.777 131.596 20.1353C131.941 19.4762 132.114 18.8172 132.114 18.1582C131.562 18.1582 131.01 18.1148 130.457 18.0281C129.905 17.924 129.37 17.872 128.852 17.872H128.827L126.678 20.1613C126.557 20.2827 126.462 20.4474 126.393 20.6556C126.324 20.8637 126.273 21.0891 126.238 21.3319C126.204 21.5747 126.178 21.8175 126.161 22.0603C126.143 22.3032 126.135 22.5199 126.135 22.7107C126.135 22.7627 126.135 22.8841 126.135 23.0749C126.135 23.2657 126.143 23.3958 126.161 23.4651ZM136.851 24.4537L137.731 19.2508V18.5223L138.248 15.0624C138.3 14.9931 138.395 14.9584 138.533 14.9584C138.671 14.941 138.766 14.9324 138.818 14.9324C138.956 14.9324 139.111 14.9844 139.284 15.0884C139.474 15.1751 139.568 15.2966 139.568 15.4526V17.2216C139.638 17.1696 139.758 17.0655 139.931 16.9095C140.104 16.7534 140.285 16.5886 140.474 16.4152C140.682 16.2418 140.871 16.077 141.044 15.9209C141.217 15.7648 141.329 15.6521 141.38 15.5827C141.57 15.4093 141.795 15.2619 142.054 15.1405C142.33 15.0191 142.588 14.9584 142.83 14.9584C143.33 14.9584 143.719 15.1145 143.995 15.4266C144.288 15.7388 144.435 16.1377 144.435 16.6233C144.435 16.658 144.426 16.684 144.409 16.7013C144.409 16.7013 144.409 16.7187 144.409 16.7534V16.8574L143.425 21.3059V23.4131C143.96 23.4131 144.513 23.309 145.082 23.1009C145.669 22.8755 146.23 22.598 146.764 22.2685C147.299 21.9389 147.8 21.5661 148.266 21.1498C148.732 20.7162 149.137 20.3 149.482 19.9011H149.586C149.707 19.9011 149.801 19.9445 149.871 20.0312C149.957 20.1006 150 20.196 150 20.3174C150 20.6989 149.871 21.0805 149.612 21.462C149.37 21.8262 149.051 22.1731 148.654 22.5026C148.274 22.8321 147.826 23.1443 147.308 23.4391C146.808 23.734 146.307 23.9854 145.807 24.1935C145.324 24.4017 144.849 24.5664 144.383 24.6878C143.917 24.8092 143.52 24.8699 143.192 24.8699C142.864 24.8699 142.606 24.8092 142.416 24.6878C142.226 24.5664 142.079 24.4103 141.976 24.2196C141.89 24.0114 141.829 23.786 141.795 23.5432C141.777 23.3004 141.769 23.0402 141.769 22.7627V22.4246L142.778 17.3777V16.5192C142.364 16.5192 141.95 16.7013 141.536 17.0655C141.139 17.4298 140.777 17.872 140.449 18.3923C140.138 18.9126 139.862 19.4416 139.62 19.9792C139.396 20.5168 139.232 20.9591 139.128 21.3059C139.094 21.4273 139.042 21.6441 138.973 21.9563C138.904 22.2685 138.835 22.598 138.766 22.9448C138.714 23.2917 138.663 23.6212 138.611 23.9334C138.559 24.2456 138.525 24.471 138.507 24.6098C138.525 24.7138 138.49 24.7919 138.404 24.8439C138.335 24.8959 138.248 24.9393 138.145 24.974C138.041 24.9913 137.929 25 137.808 25C137.705 25 137.619 25 137.55 25C137.394 25 137.239 24.974 137.084 24.9219C136.928 24.8699 136.851 24.7398 136.851 24.5317V24.4537Z" fill="#333333"/>
<path d="M90.4377 50.2656C90.4924 50.1198 90.62 49.974 90.8205 49.8281C91.0393 49.6823 91.2124 49.5911 91.34 49.5547C92.1968 49.5182 93.0718 49.4635 93.965 49.3906C94.8765 49.3177 95.788 49.2448 96.6994 49.1719C97.6109 49.099 98.5132 49.0352 99.4064 48.9805C100.299 48.9076 101.165 48.8711 102.004 48.8711C102.624 48.8711 103.243 48.8984 103.863 48.9531C104.501 49.0078 105.103 49.1354 105.668 49.3359L105.203 49.8008C105.203 49.8008 105.048 49.819 104.738 49.8555C104.428 49.8919 104.018 49.9375 103.508 49.9922C103.016 50.0469 102.46 50.1107 101.84 50.1836C101.22 50.2565 100.582 50.3294 99.926 50.4023C99.288 50.457 98.6773 50.5117 98.094 50.5664C97.5106 50.6211 97.0002 50.6667 96.5627 50.7031C95.7424 50.776 94.9038 50.8307 94.0471 50.8672C93.1903 50.9036 92.3609 50.9219 91.5588 50.9219C91.4676 50.9219 91.3583 50.9128 91.2307 50.8945C91.1031 50.8763 90.9663 50.849 90.8205 50.8125C90.6929 50.7578 90.5835 50.6849 90.4924 50.5938C90.4195 50.5026 90.4012 50.3932 90.4377 50.2656ZM125.711 56.9375L127.051 40.9414L127.215 40.6953L120.27 40.1484C120.105 40.1302 119.941 40.0755 119.777 39.9844C119.632 39.875 119.559 39.7292 119.559 39.5469C119.559 39.4193 119.577 39.3281 119.613 39.2734C119.668 39.2005 119.759 39.1276 119.887 39.0547H121.062C123.505 39.0547 125.948 39.1094 128.391 39.2188C130.852 39.3099 133.303 39.3919 135.746 39.4648C135.855 39.556 135.947 39.6654 136.02 39.793C136.111 39.9023 136.156 40.0208 136.156 40.1484C136.156 40.276 136.074 40.4219 135.91 40.5859C135.764 40.7318 135.628 40.8047 135.5 40.8047H128.473C128.473 41.7708 128.409 42.7005 128.281 43.5938C128.154 44.4688 128.053 45.3984 127.98 46.3828C127.962 46.5286 127.944 46.8385 127.926 47.3125C127.908 47.7682 127.88 48.306 127.844 48.9258C127.807 49.5273 127.771 50.1745 127.734 50.8672C127.698 51.5599 127.661 52.2161 127.625 52.8359C127.589 53.4375 127.552 53.9753 127.516 54.4492C127.479 54.9049 127.461 55.2057 127.461 55.3516C127.443 55.4974 127.443 55.7161 127.461 56.0078C127.497 56.2995 127.525 56.6094 127.543 56.9375C127.561 57.2656 127.552 57.612 127.516 57.9766C127.497 58.3229 127.443 58.651 127.352 58.9609C127.279 59.2526 127.151 59.4896 126.969 59.6719C126.786 59.8359 126.549 59.918 126.258 59.918C126.221 59.918 126.148 59.918 126.039 59.918C125.948 59.8997 125.893 59.8906 125.875 59.8906L125.711 59.6172V56.9375ZM134.023 55.7344C134.06 55.625 134.115 55.4336 134.188 55.1602C134.279 54.8685 134.361 54.5586 134.434 54.2305C134.525 53.9023 134.598 53.5924 134.652 53.3008C134.725 52.9909 134.78 52.7812 134.816 52.6719C134.926 52.2344 135.053 51.7604 135.199 51.25C135.363 50.7396 135.582 50.2656 135.855 49.8281C136.129 49.3906 136.475 49.0352 136.895 48.7617C137.332 48.4701 137.87 48.3242 138.508 48.3242C138.745 48.3242 138.909 48.4154 139 48.5977C139.109 48.7617 139.201 48.944 139.273 49.1445C139.273 49.2174 139.273 49.3542 139.273 49.5547C139.292 49.737 139.301 49.8646 139.301 49.9375C139.301 50.7214 139.219 51.4141 139.055 52.0156C138.909 52.6172 138.672 53.1732 138.344 53.6836C138.034 54.194 137.651 54.6771 137.195 55.1328C136.74 55.5703 136.22 56.0352 135.637 56.5273C135.618 56.582 135.591 56.6732 135.555 56.8008C135.518 56.9284 135.5 57.0195 135.5 57.0742V57.1289C135.5 57.457 135.555 57.7214 135.664 57.9219C135.773 58.1224 135.919 58.2865 136.102 58.4141C136.302 58.5234 136.521 58.5964 136.758 58.6328C137.013 58.651 137.286 58.6602 137.578 58.6602C138.435 58.6602 139.255 58.5417 140.039 58.3047C140.823 58.0677 141.543 57.6849 142.199 57.1562C142.29 57.0651 142.4 56.9375 142.527 56.7734C142.673 56.5911 142.819 56.4089 142.965 56.2266C143.111 56.0443 143.266 55.8893 143.43 55.7617C143.594 55.6159 143.767 55.543 143.949 55.543C144.132 55.543 144.241 55.6159 144.277 55.7617C144.314 55.9076 144.332 56.0534 144.332 56.1992C144.332 56.6003 144.204 56.9831 143.949 57.3477C143.712 57.694 143.393 58.013 142.992 58.3047C142.609 58.5781 142.163 58.8242 141.652 59.043C141.16 59.2617 140.668 59.444 140.176 59.5898C139.684 59.7357 139.21 59.8451 138.754 59.918C138.316 59.9909 137.943 60.0273 137.633 60.0273C136.667 60.0273 135.855 59.8724 135.199 59.5625C134.561 59.2344 134.124 58.5872 133.887 57.6211L134.023 55.7344ZM137.934 50.3477C137.569 50.6758 137.277 50.9766 137.059 51.25C136.858 51.5052 136.694 51.7786 136.566 52.0703C136.457 52.3438 136.357 52.6445 136.266 52.9727C136.193 53.3008 136.111 53.6836 136.02 54.1211C136.366 53.8477 136.648 53.5742 136.867 53.3008C137.104 53.0273 137.296 52.7448 137.441 52.4531C137.587 52.1615 137.697 51.8516 137.77 51.5234C137.842 51.1771 137.897 50.7852 137.934 50.3477ZM144.305 59.1797C144.305 59.125 144.305 58.9883 144.305 58.7695C144.305 58.5508 144.305 58.4049 144.305 58.332C143.995 57.2383 143.949 56.1628 144.168 55.1055C144.405 54.0482 144.815 53.1003 145.398 52.2617C146 51.4049 146.757 50.694 147.668 50.1289C148.598 49.5456 149.609 49.1901 150.703 49.0625H151.195C151.596 49.0625 151.924 49.1536 152.18 49.3359C152.453 49.5 152.663 49.7188 152.809 49.9922C152.973 50.2656 153.082 50.5755 153.137 50.9219C153.21 51.2682 153.246 51.6146 153.246 51.9609C153.246 52.4349 153.191 52.8997 153.082 53.3555C152.991 53.793 152.882 54.2396 152.754 54.6953C152.645 55.151 152.535 55.6068 152.426 56.0625C152.335 56.5 152.289 56.9648 152.289 57.457V57.6211C152.307 57.6576 152.326 57.7669 152.344 57.9492C152.38 58.1133 152.408 58.2135 152.426 58.25C152.462 58.25 152.553 58.2591 152.699 58.2773C152.845 58.2773 152.936 58.2773 152.973 58.2773C153.155 58.2773 153.328 58.2773 153.492 58.2773C153.674 58.2591 153.857 58.2135 154.039 58.1406L159.234 55.7344C159.253 55.7344 159.28 55.7344 159.316 55.7344C159.371 55.7161 159.408 55.707 159.426 55.707C159.608 55.707 159.754 55.7617 159.863 55.8711C159.991 55.9805 160.055 56.1263 160.055 56.3086C160.055 56.3997 160.046 56.4909 160.027 56.582C160.027 56.6549 159.982 56.7279 159.891 56.8008C159.763 56.8919 159.526 57.0195 159.18 57.1836C158.852 57.3477 158.496 57.5299 158.113 57.7305C157.73 57.931 157.366 58.1224 157.02 58.3047C156.691 58.487 156.454 58.6055 156.309 58.6602C156.053 58.806 155.771 58.9427 155.461 59.0703C155.151 59.1797 154.832 59.2891 154.504 59.3984C154.176 59.5078 153.848 59.599 153.52 59.6719C153.21 59.7266 152.927 59.7539 152.672 59.7539C152.271 59.7539 151.943 59.6901 151.688 59.5625C151.432 59.4167 151.241 59.2344 151.113 59.0156C150.986 58.7786 150.895 58.5052 150.84 58.1953C150.803 57.8672 150.803 57.5299 150.84 57.1836C150.475 57.4753 150.083 57.7852 149.664 58.1133C149.245 58.4414 148.807 58.7422 148.352 59.0156C147.896 59.2891 147.431 59.526 146.957 59.7266C146.483 59.9271 146 60.0273 145.508 60.0273C145.234 60.0273 144.988 59.9635 144.77 59.8359C144.551 59.6901 144.396 59.4714 144.305 59.1797ZM145.781 58.6055C146.201 58.6055 146.665 58.487 147.176 58.25C147.686 57.9948 148.188 57.6849 148.68 57.3203C149.172 56.9557 149.618 56.5729 150.02 56.1719C150.421 55.7526 150.73 55.3789 150.949 55.0508C150.967 54.5039 151.04 53.9844 151.168 53.4922C151.314 52.9818 151.387 52.4622 151.387 51.9336C151.387 51.8971 151.378 51.8424 151.359 51.7695C151.359 51.6966 151.359 51.6419 151.359 51.6055C151.122 51.4049 150.922 51.2865 150.758 51.25C150.594 51.2135 150.375 51.1953 150.102 51.1953C150.065 51.1953 149.983 51.1953 149.855 51.1953C149.746 51.1953 149.673 51.2044 149.637 51.2227C149.527 51.3138 149.345 51.487 149.09 51.7422C148.835 51.9792 148.561 52.2435 148.27 52.5352C147.996 52.8268 147.732 53.1003 147.477 53.3555C147.24 53.6107 147.076 53.7839 146.984 53.875C146.966 53.875 146.93 53.9115 146.875 53.9844C146.82 54.0391 146.757 54.112 146.684 54.2031C146.629 54.2943 146.574 54.3854 146.52 54.4766C146.483 54.5495 146.456 54.6133 146.438 54.668L145.781 57.8672V58.6055ZM159.125 59.3438C159.18 58.888 159.253 58.4596 159.344 58.0586C159.435 57.6393 159.535 57.2292 159.645 56.8281C159.754 56.4271 159.872 56.0169 160 55.5977C160.146 55.1602 160.301 54.668 160.465 54.1211V53.9844C159.736 54.4036 159.216 54.6133 158.906 54.6133C158.615 54.6133 158.469 54.5039 158.469 54.2852C158.451 54.0664 158.542 53.7747 158.742 53.4102C158.961 53.0456 159.216 52.7083 159.508 52.3984C159.818 52.0885 160.128 51.8424 160.438 51.6602C160.766 51.4779 161.021 51.4505 161.203 51.5781C161.422 51.5781 161.595 51.6146 161.723 51.6875C161.868 51.7604 162.023 51.8698 162.188 52.0156C162.607 51.6875 162.999 51.4232 163.363 51.2227C163.728 51.0221 164.165 50.9219 164.676 50.9219C165.478 50.9219 166.079 51.1042 166.48 51.4688C166.9 51.8333 167.201 52.4167 167.383 53.2188C167.693 52.9089 167.975 52.6263 168.23 52.3711C168.486 52.0977 168.759 51.8698 169.051 51.6875C169.361 51.487 169.689 51.3411 170.035 51.25C170.382 51.1406 170.773 51.0859 171.211 51.0859C171.576 51.0859 171.931 51.2227 172.277 51.4961C172.624 51.7695 172.87 52.0703 173.016 52.3984C173.016 52.4714 173.016 52.6354 173.016 52.8906C173.016 53.1458 173.016 53.319 173.016 53.4102C173.016 54.0299 172.943 54.6315 172.797 55.2148C172.651 55.7799 172.578 56.3633 172.578 56.9648C172.578 57.2201 172.605 57.4844 172.66 57.7578C172.733 58.013 172.934 58.1406 173.262 58.1406C173.699 58.1406 174.091 58.0495 174.438 57.8672C174.802 57.6849 175.13 57.4661 175.422 57.2109C175.732 56.9375 176.005 56.6458 176.242 56.3359C176.497 56.026 176.725 55.7435 176.926 55.4883C177.145 55.2148 177.345 54.987 177.527 54.8047C177.71 54.6224 177.892 54.5312 178.074 54.5312C178.202 54.5312 178.339 54.5859 178.484 54.6953C178.648 54.7865 178.73 54.9049 178.73 55.0508C178.73 55.069 178.721 55.0964 178.703 55.1328C178.703 55.1693 178.703 55.1966 178.703 55.2148C178.521 55.7799 178.257 56.3177 177.91 56.8281C177.564 57.3385 177.163 57.7943 176.707 58.1953C176.251 58.5781 175.741 58.888 175.176 59.125C174.629 59.3438 174.046 59.4531 173.426 59.4531C172.842 59.4531 172.35 59.3802 171.949 59.2344C171.548 59.0703 171.238 58.7057 171.02 58.1406C171.02 58.0859 171.01 57.9674 170.992 57.7852C170.992 57.5846 170.992 57.4661 170.992 57.4297C170.992 56.737 171.056 56.0716 171.184 55.4336C171.329 54.7956 171.402 54.1484 171.402 53.4922C171.402 53.4375 171.393 53.319 171.375 53.1367C171.375 52.9544 171.375 52.8359 171.375 52.7812C171.302 52.6901 171.184 52.6445 171.02 52.6445C170.874 52.6445 170.737 52.6445 170.609 52.6445C170.227 52.6445 169.862 52.7812 169.516 53.0547C169.169 53.3281 168.85 53.6745 168.559 54.0938C168.267 54.513 168.003 54.987 167.766 55.5156C167.547 56.026 167.355 56.5456 167.191 57.0742C167.027 57.5846 166.891 58.0677 166.781 58.5234C166.69 58.9609 166.635 59.3255 166.617 59.6172L166.316 59.8906H165.387C165.223 59.8906 165.132 59.8086 165.113 59.6445C165.113 59.4622 165.113 59.3255 165.113 59.2344C165.113 58.7969 165.141 58.3594 165.195 57.9219C165.268 57.4661 165.341 57.0195 165.414 56.582C165.505 56.1263 165.587 55.6706 165.66 55.2148C165.733 54.7591 165.779 54.3125 165.797 53.875C165.779 53.7292 165.76 53.5742 165.742 53.4102C165.724 53.2279 165.688 53.0638 165.633 52.918C165.578 52.7721 165.496 52.6536 165.387 52.5625C165.277 52.4531 165.122 52.3984 164.922 52.3984C164.63 52.3984 164.348 52.4531 164.074 52.5625C163.801 52.6719 163.546 52.8177 163.309 53C163.09 53.1641 162.889 53.3737 162.707 53.6289C162.543 53.8659 162.424 54.1302 162.352 54.4219L160.711 59.7266L160.465 60C160.465 60 160.41 60 160.301 60C160.191 60.0182 160.109 60.0273 160.055 60.0273C159.854 60.0273 159.645 60.0091 159.426 59.9727C159.225 59.918 159.125 59.7448 159.125 59.4531V59.3438Z" fill="#333333"/>
</svg>
