<svg width="566" height="94" viewBox="0 0 566 94" fill="none" xmlns="http://www.w3.org/2000/svg">
<path d="M21.9727 82.8125L26.7578 25.6836L27.3438 24.8047L2.53906 22.8516C1.95312 22.7865 1.36719 22.5911 0.78125 22.2656C0.260417 21.875 0 21.3542 0 20.7031C0 20.2474 0.0651042 19.9219 0.195312 19.7266C0.390625 19.4661 0.716146 19.2057 1.17188 18.9453H5.37109C14.0951 18.9453 22.819 19.1406 31.543 19.5312C40.332 19.8568 49.0885 20.1497 57.8125 20.4102C58.2031 20.7357 58.5286 21.1263 58.7891 21.582C59.1146 21.9727 59.2773 22.3958 59.2773 22.8516C59.2773 23.3073 58.9844 23.8281 58.3984 24.4141C57.8776 24.9349 57.3893 25.1953 56.9336 25.1953H31.8359C31.8359 28.6458 31.6081 31.9661 31.1523 35.1562C30.6966 38.2812 30.3385 41.6016 30.0781 45.1172C30.013 45.638 29.9479 46.7448 29.8828 48.4375C29.8177 50.0651 29.7201 51.9857 29.5898 54.1992C29.4596 56.3477 29.3294 58.6589 29.1992 61.1328C29.069 63.6068 28.9388 65.9505 28.8086 68.1641C28.6784 70.3125 28.5482 72.2331 28.418 73.9258C28.2878 75.5534 28.2227 76.6276 28.2227 77.1484C28.1576 77.6693 28.1576 78.4505 28.2227 79.4922C28.3529 80.5339 28.4505 81.6406 28.5156 82.8125C28.5807 83.9844 28.5482 85.2214 28.418 86.5234C28.3529 87.7604 28.1576 88.9323 27.832 90.0391C27.5716 91.0807 27.1159 91.9271 26.4648 92.5781C25.8138 93.1641 24.9674 93.457 23.9258 93.457C23.7956 93.457 23.5352 93.457 23.1445 93.457C22.819 93.3919 22.6237 93.3594 22.5586 93.3594L21.9727 92.3828V82.8125ZM72.4609 71.7773C72.3307 71.5169 72.1029 71.1589 71.7773 70.7031C71.5169 70.1823 71.1914 69.9219 70.8008 69.9219C69.5638 69.9219 68.2943 70.4753 66.9922 71.582C65.7552 72.6237 64.5508 73.8932 63.3789 75.3906C62.2721 76.8229 61.2956 78.2878 60.4492 79.7852C59.668 81.2826 59.1797 82.4544 58.9844 83.3008C58.724 84.1471 58.5938 85.1562 58.5938 86.3281C58.5938 87.5 58.4961 88.6068 58.3008 89.6484C58.1706 90.6901 57.8125 91.569 57.2266 92.2852C56.7057 93.0013 55.7617 93.3594 54.3945 93.3594C53.5482 93.3594 52.9622 93.1966 52.6367 92.8711C52.3763 92.4805 52.2461 91.862 52.2461 91.0156C52.7018 87.8906 53.0924 85.319 53.418 83.3008C53.8086 81.2826 54.1341 79.5247 54.3945 78.0273C54.7201 76.4648 55.013 74.9674 55.2734 73.5352C55.599 72.0378 55.957 70.2474 56.3477 68.1641C56.7383 66.0807 57.1615 63.5417 57.6172 60.5469C58.0729 57.487 58.6263 53.6133 59.2773 48.9258C59.2773 47.9492 59.3424 46.582 59.4727 44.8242C59.6029 43.0013 59.8307 41.0807 60.1562 39.0625C60.5469 36.9792 61.0352 34.8958 61.6211 32.8125C62.207 30.6641 62.9232 28.7435 63.7695 27.0508C64.681 25.3581 65.7227 23.9909 66.8945 22.9492C68.0664 21.8424 69.4336 21.2891 70.9961 21.2891C72.1029 21.2891 72.9818 21.6797 73.6328 22.4609C74.349 23.1771 74.8698 24.056 75.1953 25.0977C75.5859 26.1393 75.8138 27.2461 75.8789 28.418C75.944 29.5247 75.9766 30.4362 75.9766 31.1523C75.9766 32.7799 75.8464 34.3424 75.5859 35.8398C75.3255 37.2721 75 38.737 74.6094 40.2344C74.2188 41.6667 73.7956 43.1315 73.3398 44.6289C72.8841 46.0612 72.4935 47.4935 72.168 48.9258L65.918 60.8398L62.4023 68.457L62.8906 69.5312C64.2578 67.9036 65.6576 66.6667 67.0898 65.8203C68.5221 64.9089 70.3125 64.388 72.4609 64.2578C73.4375 64.1927 74.2513 64.4857 74.9023 65.1367C75.6185 65.7878 76.2044 66.6341 76.6602 67.6758C77.1159 68.6523 77.4414 69.6615 77.6367 70.7031C77.8971 71.7448 78.0599 72.5911 78.125 73.2422C78.125 73.6328 78.0924 74.2513 78.0273 75.0977C77.9622 75.944 77.8971 76.9206 77.832 78.0273C77.7669 79.1341 77.7018 80.306 77.6367 81.543C77.6367 82.7148 77.7018 83.8216 77.832 84.8633C77.9622 85.9049 78.2227 86.8164 78.6133 87.5977C79.069 88.3138 79.6549 88.737 80.3711 88.8672C82.9102 88.5417 85.1562 88.1185 87.1094 87.5977C89.1276 87.0117 90.8854 86.2305 92.3828 85.2539C93.8802 84.2122 95.1172 82.9102 96.0938 81.3477C97.1354 79.7852 97.9167 77.8646 98.4375 75.5859C98.8932 74.9349 99.5443 74.6094 100.391 74.6094C101.367 74.6094 101.986 74.9674 102.246 75.6836C102.572 76.3997 102.734 77.181 102.734 78.0273C102.734 80.6315 101.888 82.9427 100.195 84.9609C98.5677 86.9141 96.4844 88.5417 93.9453 89.8438C91.4062 91.1458 88.6719 92.1549 85.7422 92.8711C82.8125 93.5221 80.1107 93.8477 77.6367 93.8477C76.0742 93.8477 75 93.3268 74.4141 92.2852C73.8281 91.1784 73.4701 89.8763 73.3398 88.3789C73.2747 86.8164 73.2747 85.2539 73.3398 83.6914C73.4049 82.1289 73.4049 80.8594 73.3398 79.8828C73.3398 79.5573 73.3073 79.0365 73.2422 78.3203C73.1771 77.5391 73.0794 76.7253 72.9492 75.8789C72.8841 75.0326 72.7865 74.2188 72.6562 73.4375C72.526 72.6562 72.4609 72.1029 72.4609 71.7773ZM64.4531 48.3398C64.4531 48.5352 64.4531 48.8607 64.4531 49.3164C64.4531 49.7721 64.4531 50.1953 64.4531 50.5859C64.5182 50.9766 64.5508 51.3346 64.5508 51.6602C64.5508 51.9857 64.5508 52.181 64.5508 52.2461L65.0391 52.7344C65.6901 52.3438 66.276 51.6602 66.7969 50.6836C67.3828 49.707 67.9036 48.5352 68.3594 47.168C68.8151 45.8008 69.2057 44.3685 69.5312 42.8711C69.9219 41.3086 70.2474 39.7786 70.5078 38.2812C70.7682 36.7839 70.9635 35.4167 71.0938 34.1797C71.2891 32.9427 71.3867 31.9336 71.3867 31.1523C71.3867 30.8919 71.3542 30.4036 71.2891 29.6875C71.2891 28.9714 71.2565 28.5482 71.1914 28.418L70.7031 27.4414C69.1406 28.6784 67.9362 30.1432 67.0898 31.8359C66.2435 33.5286 65.625 35.2865 65.2344 37.1094C64.8438 38.9323 64.6159 40.8203 64.5508 42.7734C64.4857 44.7266 64.4531 46.582 64.4531 48.3398ZM100.879 78.5156C101.009 78.125 101.204 77.4414 101.465 76.4648C101.79 75.4232 102.083 74.3164 102.344 73.1445C102.669 71.9727 102.93 70.8659 103.125 69.8242C103.385 68.7174 103.581 67.9688 103.711 67.5781C104.102 66.0156 104.557 64.3229 105.078 62.5C105.664 60.6771 106.445 58.9844 107.422 57.4219C108.398 55.8594 109.635 54.5898 111.133 53.6133C112.695 52.5716 114.616 52.0508 116.895 52.0508C117.741 52.0508 118.327 52.3763 118.652 53.0273C119.043 53.6133 119.368 54.2643 119.629 54.9805C119.629 55.2409 119.629 55.7292 119.629 56.4453C119.694 57.0964 119.727 57.5521 119.727 57.8125C119.727 60.612 119.434 63.0859 118.848 65.2344C118.327 67.3828 117.48 69.3685 116.309 71.1914C115.202 73.0143 113.835 74.7396 112.207 76.3672C110.579 77.9297 108.724 79.5898 106.641 81.3477C106.576 81.543 106.478 81.8685 106.348 82.3242C106.217 82.7799 106.152 83.1055 106.152 83.3008V83.4961C106.152 84.668 106.348 85.612 106.738 86.3281C107.129 87.0443 107.65 87.6302 108.301 88.0859C109.017 88.4766 109.798 88.737 110.645 88.8672C111.556 88.9323 112.533 88.9648 113.574 88.9648C116.634 88.9648 119.564 88.5417 122.363 87.6953C125.163 86.849 127.734 85.4818 130.078 83.5938C130.404 83.2682 130.794 82.8125 131.25 82.2266C131.771 81.5755 132.292 80.9245 132.812 80.2734C133.333 79.6224 133.887 79.069 134.473 78.6133C135.059 78.0924 135.677 77.832 136.328 77.832C136.979 77.832 137.37 78.0924 137.5 78.6133C137.63 79.1341 137.695 79.6549 137.695 80.1758C137.695 81.6081 137.24 82.9753 136.328 84.2773C135.482 85.5143 134.342 86.6536 132.91 87.6953C131.543 88.6719 129.948 89.5508 128.125 90.332C126.367 91.1133 124.609 91.7643 122.852 92.2852C121.094 92.806 119.401 93.1966 117.773 93.457C116.211 93.7174 114.876 93.8477 113.77 93.8477C110.319 93.8477 107.422 93.2943 105.078 92.1875C102.799 91.0156 101.237 88.7044 100.391 85.2539L100.879 78.5156ZM114.844 59.2773C113.542 60.4492 112.5 61.5234 111.719 62.5C111.003 63.4115 110.417 64.388 109.961 65.4297C109.57 66.4062 109.212 67.4805 108.887 68.6523C108.626 69.8242 108.333 71.1914 108.008 72.7539C109.245 71.7773 110.254 70.8008 111.035 69.8242C111.882 68.8477 112.565 67.8385 113.086 66.7969C113.607 65.7552 113.997 64.6484 114.258 63.4766C114.518 62.2396 114.714 60.8398 114.844 59.2773ZM204.688 77.5391L185.645 89.9414H185.059C184.408 89.9414 183.757 89.7786 183.105 89.4531C182.52 89.1276 182.227 88.5742 182.227 87.793C182.227 87.2721 182.357 86.8164 182.617 86.4258C182.943 85.9701 183.333 85.5794 183.789 85.2539C184.31 84.8633 185.254 84.2773 186.621 83.4961C187.988 82.7148 189.421 81.8685 190.918 80.957C192.415 79.9805 193.848 79.1016 195.215 78.3203C196.647 77.5391 197.624 76.9857 198.145 76.6602C198.405 76.3997 198.796 76.1068 199.316 75.7812C199.837 75.3906 200.293 75.0326 200.684 74.707C201.139 74.3164 201.53 73.9909 201.855 73.7305C202.181 73.4701 202.344 73.3073 202.344 73.2422L194.824 58.0078C194.499 57.5521 194.303 57.194 194.238 56.9336C194.238 56.6081 194.238 56.1849 194.238 55.6641C194.238 53.7109 195.182 52.7344 197.07 52.7344C197.331 52.7344 197.917 52.9297 198.828 53.3203C199.805 53.6458 200.977 54.1341 202.344 54.7852C203.711 55.3711 205.143 56.0221 206.641 56.7383C208.138 57.4544 209.505 58.1055 210.742 58.6914C211.979 59.2773 213.021 59.7982 213.867 60.2539C214.714 60.6445 215.137 60.8398 215.137 60.8398L223.828 51.8555C224.023 51.0742 224.577 50.1302 225.488 49.0234C226.465 47.9167 227.474 46.7448 228.516 45.5078C229.557 44.2708 230.469 43.0339 231.25 41.7969C232.031 40.4948 232.422 39.3229 232.422 38.2812V37.9883L225.684 22.2656C225.033 20.7682 224.609 19.1732 224.414 17.4805C224.284 15.7227 224.219 13.9974 224.219 12.3047C224.219 10.8724 224.447 9.4401 224.902 8.00781C225.358 6.51042 226.009 5.17578 226.855 4.00391C227.767 2.83203 228.841 1.88802 230.078 1.17188C231.315 0.390625 232.78 0 234.473 0C236.23 0 237.663 0.520833 238.77 1.5625C239.941 2.53906 240.853 3.77604 241.504 5.27344C242.22 6.77083 242.708 8.36589 242.969 10.0586C243.229 11.6862 243.359 13.1836 243.359 14.5508C243.359 18.457 242.904 22.2005 241.992 25.7812C241.146 29.2969 239.974 32.9102 238.477 36.6211V37.9883C239.974 40.7878 241.504 43.6849 243.066 46.6797C244.629 49.6745 246.029 52.7995 247.266 56.0547C248.503 59.2448 249.512 62.4674 250.293 65.7227C251.074 68.9128 251.465 72.1354 251.465 75.3906C251.465 77.9297 251.042 80.306 250.195 82.5195C249.414 84.668 248.275 86.556 246.777 88.1836C245.28 89.8112 243.457 91.0807 241.309 91.9922C239.225 92.9036 236.882 93.3594 234.277 93.3594C231.348 93.3594 228.548 92.9362 225.879 92.0898C223.275 91.1784 220.736 90.0065 218.262 88.5742C215.853 87.0768 213.542 85.3841 211.328 83.4961C209.18 81.6081 207.161 79.6224 205.273 77.5391H204.688ZM209.57 74.2188C209.57 74.2839 209.733 74.5117 210.059 74.9023C210.449 75.293 210.872 75.7487 211.328 76.2695C211.849 76.7253 212.37 77.2135 212.891 77.7344C213.411 78.2552 213.867 78.6784 214.258 79.0039C214.453 79.1992 214.779 79.4922 215.234 79.8828C215.755 80.2083 216.243 80.599 216.699 81.0547C217.22 81.4453 217.676 81.8359 218.066 82.2266C218.522 82.5521 218.815 82.7474 218.945 82.8125C219.336 83.0078 219.922 83.3333 220.703 83.7891C221.484 84.2448 222.266 84.7005 223.047 85.1562C223.828 85.612 224.577 86.0352 225.293 86.4258C226.009 86.8164 226.432 87.0443 226.562 87.1094C228.06 87.7604 229.427 88.1836 230.664 88.3789C231.966 88.5091 233.268 88.5742 234.57 88.5742C236.523 88.5742 238.184 88.2161 239.551 87.5C240.983 86.7188 242.155 85.7096 243.066 84.4727C243.978 83.1706 244.629 81.7057 245.02 80.0781C245.475 78.3854 245.703 76.6927 245.703 75C245.703 73.1771 245.54 71.2891 245.215 69.3359C244.954 67.3828 244.499 65.5273 243.848 63.7695L235.352 43.3594L227.637 54.1992L209.57 73.8281V74.2188ZM201.953 61.3281C201.953 61.4583 201.986 61.7188 202.051 62.1094C202.181 62.4349 202.279 62.6628 202.344 62.793C202.604 63.2487 202.93 63.8672 203.32 64.6484C203.776 65.4297 204.199 66.1784 204.59 66.8945C205.046 67.5456 205.404 68.1641 205.664 68.75C205.99 69.2708 206.185 69.5312 206.25 69.5312H206.641C206.836 69.5312 207.227 69.2708 207.812 68.75C208.398 68.1641 209.017 67.5781 209.668 66.9922C210.319 66.3411 210.905 65.7552 211.426 65.2344C211.947 64.6484 212.24 64.3229 212.305 64.2578L211.816 63.7695L203.32 61.3281H201.953ZM229.395 12.207C229.395 15.8529 229.948 19.1732 231.055 22.168C232.161 25.0977 233.561 28.1576 235.254 31.3477C235.579 31.1523 235.872 30.7617 236.133 30.1758C236.393 29.5247 236.621 28.8411 236.816 28.125C237.012 27.3438 237.174 26.6276 237.305 25.9766C237.435 25.3255 237.533 24.9349 237.598 24.8047C237.598 24.6745 237.63 24.349 237.695 23.8281C237.826 23.3073 237.923 22.7214 237.988 22.0703C238.053 21.3542 238.118 20.6706 238.184 20.0195C238.314 19.3685 238.411 18.8802 238.477 18.5547V18.2617C238.477 18.0013 238.444 17.1875 238.379 15.8203C238.379 14.4531 238.281 12.9883 238.086 11.4258C237.891 9.79818 237.533 8.36589 237.012 7.12891C236.491 5.82682 235.71 5.17578 234.668 5.17578C233.626 5.17578 232.747 5.37109 232.031 5.76172C231.315 6.15234 230.762 6.67318 230.371 7.32422C230.046 7.97526 229.785 8.72396 229.59 9.57031C229.46 10.4167 229.395 11.2956 229.395 12.207ZM255.371 78.5156C255.501 78.125 255.697 77.4414 255.957 76.4648C256.283 75.4232 256.576 74.3164 256.836 73.1445C257.161 71.9727 257.422 70.8659 257.617 69.8242C257.878 68.7174 258.073 67.9688 258.203 67.5781C258.594 66.0156 259.049 64.3229 259.57 62.5C260.156 60.6771 260.938 58.9844 261.914 57.4219C262.891 55.8594 264.128 54.5898 265.625 53.6133C267.188 52.5716 269.108 52.0508 271.387 52.0508C272.233 52.0508 272.819 52.3763 273.145 53.0273C273.535 53.6133 273.861 54.2643 274.121 54.9805C274.121 55.2409 274.121 55.7292 274.121 56.4453C274.186 57.0964 274.219 57.5521 274.219 57.8125C274.219 60.612 273.926 63.0859 273.34 65.2344C272.819 67.3828 271.973 69.3685 270.801 71.1914C269.694 73.0143 268.327 74.7396 266.699 76.3672C265.072 77.9297 263.216 79.5898 261.133 81.3477C261.068 81.543 260.97 81.8685 260.84 82.3242C260.71 82.7799 260.645 83.1055 260.645 83.3008V83.4961C260.645 84.668 260.84 85.612 261.23 86.3281C261.621 87.0443 262.142 87.6302 262.793 88.0859C263.509 88.4766 264.29 88.737 265.137 88.8672C266.048 88.9323 267.025 88.9648 268.066 88.9648C271.126 88.9648 274.056 88.5417 276.855 87.6953C279.655 86.849 282.227 85.4818 284.57 83.5938C284.896 83.2682 285.286 82.8125 285.742 82.2266C286.263 81.5755 286.784 80.9245 287.305 80.2734C287.826 79.6224 288.379 79.069 288.965 78.6133C289.551 78.0924 290.169 77.832 290.82 77.832C291.471 77.832 291.862 78.0924 291.992 78.6133C292.122 79.1341 292.188 79.6549 292.188 80.1758C292.188 81.6081 291.732 82.9753 290.82 84.2773C289.974 85.5143 288.835 86.6536 287.402 87.6953C286.035 88.6719 284.44 89.5508 282.617 90.332C280.859 91.1133 279.102 91.7643 277.344 92.2852C275.586 92.806 273.893 93.1966 272.266 93.457C270.703 93.7174 269.368 93.8477 268.262 93.8477C264.811 93.8477 261.914 93.2943 259.57 92.1875C257.292 91.0156 255.729 88.7044 254.883 85.2539L255.371 78.5156ZM269.336 59.2773C268.034 60.4492 266.992 61.5234 266.211 62.5C265.495 63.4115 264.909 64.388 264.453 65.4297C264.062 66.4062 263.704 67.4805 263.379 68.6523C263.118 69.8242 262.826 71.1914 262.5 72.7539C263.737 71.7773 264.746 70.8008 265.527 69.8242C266.374 68.8477 267.057 67.8385 267.578 66.7969C268.099 65.7552 268.49 64.6484 268.75 63.4766C269.01 62.2396 269.206 60.8398 269.336 59.2773ZM292.09 76.0742C292.09 76.0742 292.122 76.0417 292.188 75.9766C292.318 75.8464 292.415 75.7487 292.48 75.6836C292.611 75.0977 292.871 74.0885 293.262 72.6562C293.652 71.224 294.076 69.694 294.531 68.0664C294.987 66.3737 295.41 64.8112 295.801 63.3789C296.257 61.9466 296.582 60.9701 296.777 60.4492C296.842 60.1888 297.038 59.6354 297.363 58.7891C297.754 57.8776 298.177 56.901 298.633 55.8594C299.089 54.8177 299.544 53.776 300 52.7344C300.456 51.6927 300.781 50.9115 300.977 50.3906C301.432 49.4792 302.116 48.2747 303.027 46.7773C304.004 45.2799 305.078 43.8802 306.25 42.5781C307.487 41.2109 308.757 40.0391 310.059 39.0625C311.361 38.0208 312.565 37.5 313.672 37.5C314.258 37.5 314.714 37.6628 315.039 37.9883C315.43 38.3138 315.69 38.7044 315.82 39.1602C316.016 39.5508 316.146 40.0065 316.211 40.5273C316.276 41.0482 316.309 41.5039 316.309 41.8945C316.309 45.2799 315.82 48.6654 314.844 52.0508C313.932 55.3711 312.663 58.5612 311.035 61.6211C309.408 64.681 307.454 67.5781 305.176 70.3125C302.962 72.9818 300.618 75.3906 298.145 77.5391C298.079 77.7344 297.982 78.125 297.852 78.7109C297.786 79.2969 297.721 79.7201 297.656 79.9805V80.1758C297.656 81.4779 297.982 82.5195 298.633 83.3008C299.349 84.082 300.195 84.668 301.172 85.0586C302.148 85.3841 303.223 85.612 304.395 85.7422C305.632 85.8724 306.803 85.9375 307.91 85.9375C308.496 85.9375 309.342 85.6445 310.449 85.0586C311.621 84.4727 312.793 83.8216 313.965 83.1055C315.202 82.3242 316.406 81.6406 317.578 81.0547C318.75 80.4688 319.629 80.1758 320.215 80.1758C320.801 80.1758 321.257 80.3711 321.582 80.7617C321.908 81.1523 322.07 81.6406 322.07 82.2266C322.07 83.2031 321.322 84.2448 319.824 85.3516C318.327 86.4583 316.602 87.5 314.648 88.4766C312.695 89.388 310.807 90.1693 308.984 90.8203C307.227 91.4714 306.055 91.7969 305.469 91.7969C303.516 92.1875 301.693 92.2201 300 91.8945C298.307 91.5039 296.842 90.8854 295.605 90.0391C294.368 89.1276 293.327 88.0534 292.48 86.8164C291.699 85.5143 291.211 84.1797 291.016 82.8125L292.09 76.0742ZM310.547 46.9727C309.961 46.9727 309.277 47.4609 308.496 48.4375C307.78 49.349 307.064 50.4232 306.348 51.6602C305.632 52.8971 304.98 54.1016 304.395 55.2734C303.874 56.3802 303.581 57.1289 303.516 57.5195C303.32 57.9753 303.027 58.724 302.637 59.7656C302.246 60.8073 301.855 61.9141 301.465 63.0859C301.074 64.1927 300.684 65.2669 300.293 66.3086C299.967 67.3503 299.74 68.099 299.609 68.5547H300.098C300.098 68.5547 300.293 68.3268 300.684 67.8711C301.074 67.3503 301.497 66.7643 301.953 66.1133C302.474 65.4622 302.995 64.8112 303.516 64.1602C304.102 63.444 304.525 62.8581 304.785 62.4023C305.046 62.0117 305.404 61.4258 305.859 60.6445C306.315 59.7982 306.608 59.2773 306.738 59.082C306.999 58.3659 307.357 57.4219 307.812 56.25C308.268 55.013 308.691 53.8086 309.082 52.6367C309.473 51.4648 309.798 50.4557 310.059 49.6094C310.384 48.6979 310.547 48.1771 310.547 48.0469V46.9727ZM320.215 78.5156C320.345 78.125 320.54 77.4414 320.801 76.4648C321.126 75.4232 321.419 74.3164 321.68 73.1445C322.005 71.9727 322.266 70.8659 322.461 69.8242C322.721 68.7174 322.917 67.9688 323.047 67.5781C323.438 66.0156 323.893 64.3229 324.414 62.5C325 60.6771 325.781 58.9844 326.758 57.4219C327.734 55.8594 328.971 54.5898 330.469 53.6133C332.031 52.5716 333.952 52.0508 336.23 52.0508C337.077 52.0508 337.663 52.3763 337.988 53.0273C338.379 53.6133 338.704 54.2643 338.965 54.9805C338.965 55.2409 338.965 55.7292 338.965 56.4453C339.03 57.0964 339.062 57.5521 339.062 57.8125C339.062 60.612 338.77 63.0859 338.184 65.2344C337.663 67.3828 336.816 69.3685 335.645 71.1914C334.538 73.0143 333.171 74.7396 331.543 76.3672C329.915 77.9297 328.06 79.5898 325.977 81.3477C325.911 81.543 325.814 81.8685 325.684 82.3242C325.553 82.7799 325.488 83.1055 325.488 83.3008V83.4961C325.488 84.668 325.684 85.612 326.074 86.3281C326.465 87.0443 326.986 87.6302 327.637 88.0859C328.353 88.4766 329.134 88.737 329.98 88.8672C330.892 88.9323 331.868 88.9648 332.91 88.9648C335.97 88.9648 338.9 88.5417 341.699 87.6953C344.499 86.849 347.07 85.4818 349.414 83.5938C349.74 83.2682 350.13 82.8125 350.586 82.2266C351.107 81.5755 351.628 80.9245 352.148 80.2734C352.669 79.6224 353.223 79.069 353.809 78.6133C354.395 78.0924 355.013 77.832 355.664 77.832C356.315 77.832 356.706 78.0924 356.836 78.6133C356.966 79.1341 357.031 79.6549 357.031 80.1758C357.031 81.6081 356.576 82.9753 355.664 84.2773C354.818 85.5143 353.678 86.6536 352.246 87.6953C350.879 88.6719 349.284 89.5508 347.461 90.332C345.703 91.1133 343.945 91.7643 342.188 92.2852C340.43 92.806 338.737 93.1966 337.109 93.457C335.547 93.7174 334.212 93.8477 333.105 93.8477C329.655 93.8477 326.758 93.2943 324.414 92.1875C322.135 91.0156 320.573 88.7044 319.727 85.2539L320.215 78.5156ZM334.18 59.2773C332.878 60.4492 331.836 61.5234 331.055 62.5C330.339 63.4115 329.753 64.388 329.297 65.4297C328.906 66.4062 328.548 67.4805 328.223 68.6523C327.962 69.8242 327.669 71.1914 327.344 72.7539C328.581 71.7773 329.59 70.8008 330.371 69.8242C331.217 68.8477 331.901 67.8385 332.422 66.7969C332.943 65.7552 333.333 64.6484 333.594 63.4766C333.854 62.2396 334.049 60.8398 334.18 59.2773ZM356.738 80.3711C357.064 77.0508 357.812 73.8932 358.984 70.8984C360.221 67.9036 361.621 65.332 363.184 63.1836C364.811 61.0352 366.439 59.375 368.066 58.2031C369.759 57.0312 371.224 56.6732 372.461 57.1289C372.786 56.9336 373.047 56.7708 373.242 56.6406C373.503 56.4453 373.698 56.2826 373.828 56.1523C374.023 55.957 374.219 55.8268 374.414 55.7617C374.674 55.6315 375.033 55.5664 375.488 55.5664C376.4 55.5664 377.214 55.8594 377.93 56.4453C378.646 57.0312 379.264 57.7474 379.785 58.5938C380.371 59.4401 380.794 60.3516 381.055 61.3281C381.38 62.2396 381.543 63.0859 381.543 63.8672C381.543 64.7135 381.217 65.2995 380.566 65.625C379.915 65.9505 379.167 66.1133 378.32 66.1133C377.799 66.1133 377.344 66.0156 376.953 65.8203C376.562 65.5599 376.204 65.2669 375.879 64.9414C375.618 64.6159 375.326 64.2904 375 63.9648C374.674 63.6393 374.251 63.4115 373.73 63.2812H373.633H373.34C373.275 63.3464 373.112 63.5091 372.852 63.7695C372.656 63.9648 372.526 64.1276 372.461 64.2578C371.094 65.8854 369.824 67.3503 368.652 68.6523C367.48 69.8893 366.439 71.1589 365.527 72.4609C364.681 73.763 363.997 75.1628 363.477 76.6602C363.021 78.1576 362.793 79.9479 362.793 82.0312C362.793 82.2266 362.793 82.5195 362.793 82.9102C362.793 83.3008 362.793 83.6914 362.793 84.082C362.858 84.4727 362.891 84.8633 362.891 85.2539C362.891 85.6445 362.891 85.9375 362.891 86.1328C363.021 86.7839 363.379 87.2721 363.965 87.5977C364.616 87.9232 365.202 88.2487 365.723 88.5742C365.918 88.5742 366.406 88.6068 367.188 88.6719C367.969 88.6719 368.424 88.6719 368.555 88.6719C370.898 88.6719 373.665 88.3138 376.855 87.5977C380.046 86.8164 383.236 85.8073 386.426 84.5703C389.681 83.3333 392.741 81.8685 395.605 80.1758C398.47 78.418 400.749 76.5951 402.441 74.707C402.832 74.1862 403.158 73.4701 403.418 72.5586C403.743 71.6471 404.069 70.7682 404.395 69.9219C404.785 69.0104 405.208 68.2292 405.664 67.5781C406.12 66.9271 406.803 66.6016 407.715 66.6016C408.561 66.6016 409.082 66.9596 409.277 67.6758C409.538 68.3268 409.668 68.9779 409.668 69.6289C409.668 71.7122 409.147 73.6003 408.105 75.293C407.129 76.9857 405.892 78.5156 404.395 79.8828C402.897 81.25 401.237 82.4544 399.414 83.4961C397.656 84.5378 395.964 85.4167 394.336 86.1328C393.88 86.263 392.871 86.6211 391.309 87.207C389.811 87.793 388.184 88.4115 386.426 89.0625C384.668 89.7135 382.943 90.3646 381.25 91.0156C379.622 91.6016 378.418 92.0573 377.637 92.3828C376.595 92.7083 375.716 92.9688 375 93.1641C374.284 93.2943 373.633 93.4245 373.047 93.5547C372.461 93.6849 371.842 93.75 371.191 93.75C370.605 93.8151 369.889 93.8477 369.043 93.8477C366.699 93.8477 364.746 93.5547 363.184 92.9688C361.686 92.3828 360.482 91.5365 359.57 90.4297C358.659 89.2578 357.975 87.8581 357.52 86.2305C357.129 84.5378 356.868 82.5846 356.738 80.3711ZM408.789 67.5781C408.919 67.3177 409.18 66.9271 409.57 66.4062C409.961 65.8203 410.156 65.332 410.156 64.9414V64.6484C410.156 64.5833 410.091 64.5182 409.961 64.4531C409.831 64.3229 409.733 64.2578 409.668 64.2578H407.91C406.217 64.7786 404.329 65.1367 402.246 65.332C400.098 65.5273 398.047 65.5924 396.094 65.5273C394.076 65.4622 392.35 65.2995 390.918 65.0391C389.486 64.7135 388.639 64.3555 388.379 63.9648C388.118 63.5742 388.607 63.1185 389.844 62.5977C391.081 62.0117 393.424 61.4258 396.875 60.8398C397.07 60.8398 397.526 60.7747 398.242 60.6445C398.893 60.4492 399.642 60.2865 400.488 60.1562C401.27 60.026 402.018 59.8958 402.734 59.7656C403.451 59.5703 403.906 59.4727 404.102 59.4727C404.362 59.4076 404.915 59.375 405.762 59.375C406.608 59.3099 407.454 59.2448 408.301 59.1797C409.212 59.1146 410.059 59.082 410.84 59.082C411.686 59.082 412.272 59.082 412.598 59.082L413.086 58.4961L420.703 45.7031C420.964 45.2474 421.419 44.8893 422.07 44.6289C422.786 44.3685 423.34 44.2383 423.73 44.2383C424.577 44.2383 425.163 44.5964 425.488 45.3125C425.814 45.9635 425.977 46.6146 425.977 47.2656C425.977 47.3307 425.944 47.3958 425.879 47.4609C425.879 47.526 425.879 47.5911 425.879 47.6562V48.0469L421.582 58.4961V59.082C421.712 58.6914 421.94 58.4961 422.266 58.4961C422.656 58.4961 422.949 58.4961 423.145 58.4961C424.121 58.4961 425.065 58.8216 425.977 59.4727C426.888 60.1237 427.344 61.0026 427.344 62.1094C427.344 62.6302 427.181 63.0534 426.855 63.3789C426.53 63.7044 426.139 63.9648 425.684 64.1602C425.228 64.3555 424.74 64.5182 424.219 64.6484C423.698 64.7135 423.242 64.7461 422.852 64.7461C422.07 64.7461 421.322 64.6484 420.605 64.4531C419.954 64.2578 419.238 64.1602 418.457 64.1602C417.741 64.1602 417.09 64.5508 416.504 65.332C415.918 66.0482 415.365 67.0247 414.844 68.2617C414.388 69.4336 413.997 70.7682 413.672 72.2656C413.346 73.763 413.053 75.2279 412.793 76.6602C412.533 78.0924 412.337 79.4271 412.207 80.6641C412.142 81.901 412.109 82.8451 412.109 83.4961C412.109 83.7565 412.109 84.2773 412.109 85.0586C412.174 85.8398 412.207 86.3607 412.207 86.6211C412.272 87.0117 412.435 87.3698 412.695 87.6953C412.956 87.9557 413.216 88.2487 413.477 88.5742H415.723C418.327 88.5742 420.898 87.9883 423.438 86.8164C426.042 85.6445 428.483 84.3099 430.762 82.8125C430.892 82.7474 431.185 82.4544 431.641 81.9336C432.161 81.3477 432.715 80.7943 433.301 80.2734C433.887 79.6875 434.408 79.1667 434.863 78.7109C435.384 78.2552 435.742 78.0273 435.938 78.0273C436.393 78.0273 436.816 78.2552 437.207 78.7109C437.598 79.1667 437.793 79.6549 437.793 80.1758C437.793 81.4128 437.337 82.6172 436.426 83.7891C435.579 84.9609 434.473 86.0677 433.105 87.1094C431.738 88.0859 430.176 88.9974 428.418 89.8438C426.66 90.6901 424.902 91.4062 423.145 91.9922C421.452 92.5781 419.824 93.0339 418.262 93.3594C416.764 93.6849 415.527 93.8477 414.551 93.8477C413.639 93.8477 412.695 93.75 411.719 93.5547C410.742 93.2943 409.863 92.9036 409.082 92.3828C408.301 91.862 407.65 91.2109 407.129 90.4297C406.608 89.6484 406.348 88.6719 406.348 87.5V76.6602L408.789 67.5781ZM435.449 73.2422C435.514 72.9167 435.71 72.3307 436.035 71.4844C436.361 70.638 436.686 69.7266 437.012 68.75C437.402 67.7734 437.76 66.862 438.086 66.0156C438.411 65.1693 438.639 64.5833 438.77 64.2578C439.16 63.2161 439.518 62.5326 439.844 62.207C440.234 61.8815 440.918 61.7188 441.895 61.7188C442.936 61.7188 443.62 62.0768 443.945 62.793C444.271 63.5091 444.434 64.3555 444.434 65.332C444.434 67.0247 444.173 68.5872 443.652 70.0195C443.197 71.3867 442.676 72.7865 442.09 74.2188C441.504 75.5859 440.951 77.0833 440.43 78.7109C439.974 80.2734 439.746 82.0964 439.746 84.1797C439.746 84.4401 439.746 84.8307 439.746 85.3516C439.746 85.8073 439.779 86.2956 439.844 86.8164C439.909 87.2721 440.039 87.6953 440.234 88.0859C440.43 88.4115 440.69 88.5742 441.016 88.5742C442.708 88.5742 444.401 88.2487 446.094 87.5977C447.852 86.8815 449.544 86.0677 451.172 85.1562C452.865 84.1797 454.46 83.138 455.957 82.0312C457.52 80.8594 458.919 79.8503 460.156 79.0039C460.612 78.6784 460.938 78.3529 461.133 78.0273C461.393 77.7018 461.621 77.4089 461.816 77.1484C462.012 76.8229 462.24 76.5625 462.5 76.3672C462.826 76.1068 463.314 75.9766 463.965 75.9766C464.811 75.9766 465.495 76.1719 466.016 76.5625C466.602 76.888 466.895 77.5065 466.895 78.418C466.895 78.8086 466.862 79.1667 466.797 79.4922C466.797 79.8177 466.634 80.1107 466.309 80.3711C466.243 80.5664 465.983 80.8268 465.527 81.1523C465.137 81.4779 464.714 81.8359 464.258 82.2266C463.802 82.5521 463.379 82.8776 462.988 83.2031C462.598 83.4635 462.305 83.6263 462.109 83.6914C462.044 83.6914 461.849 83.7891 461.523 83.9844C461.263 84.1146 461.1 84.1797 461.035 84.1797C460.97 84.2448 460.872 84.3424 460.742 84.4727C460.677 84.5378 460.645 84.6029 460.645 84.668C459.277 85.7096 457.78 86.7839 456.152 87.8906C454.59 88.9323 452.93 89.9089 451.172 90.8203C449.414 91.6667 447.591 92.3828 445.703 92.9688C443.88 93.5547 442.057 93.8477 440.234 93.8477C438.672 93.8477 437.467 93.457 436.621 92.6758C435.84 91.8294 435.254 90.7878 434.863 89.5508C434.473 88.3138 434.245 87.0117 434.18 85.6445C434.115 84.2773 434.082 83.0404 434.082 81.9336L435.449 73.2422ZM440.137 47.5586C440.137 46.3867 440.365 45.6055 440.82 45.2148C441.276 44.8242 442.09 44.6289 443.262 44.6289C443.848 44.6289 444.434 44.7591 445.02 45.0195C445.605 45.2148 445.898 45.7357 445.898 46.582C445.898 47.4284 445.475 48.2096 444.629 48.9258C443.848 49.6419 443.066 50 442.285 50C441.504 50 440.951 49.7721 440.625 49.3164C440.299 48.7956 440.137 48.2096 440.137 47.5586ZM469.727 86.1328C469.727 86.0677 469.759 85.8398 469.824 85.4492C469.889 85.0586 469.954 84.668 470.02 84.2773C470.085 83.8216 470.15 83.431 470.215 83.1055C470.28 82.7148 470.312 82.4544 470.312 82.3242V81.9336V81.3477L471.68 75.1953C472.786 72.8516 473.926 70.6055 475.098 68.457C476.335 66.3086 477.734 64.4206 479.297 62.793C480.859 61.1654 482.65 59.8633 484.668 58.8867C486.751 57.9102 489.258 57.4219 492.188 57.4219C492.773 57.4219 493.49 57.6172 494.336 58.0078C495.247 58.3333 496.126 58.7565 496.973 59.2773C497.884 59.7982 498.698 60.3516 499.414 60.9375C500.195 61.4583 500.781 61.9466 501.172 62.4023C503.19 62.0768 504.655 61.9141 505.566 61.9141C506.478 61.849 507.259 61.8164 507.91 61.8164C508.561 61.7513 509.245 61.6211 509.961 61.4258C510.742 61.2305 511.914 60.8073 513.477 60.1562C514.583 59.8307 515.658 59.668 516.699 59.668C517.155 59.668 517.578 59.8633 517.969 60.2539C518.424 60.6445 518.652 61.1003 518.652 61.6211C518.652 62.2721 518.424 62.8581 517.969 63.3789C517.513 63.8997 516.96 64.2253 516.309 64.3555L504.102 67.0898L503.027 67.5781C502.962 71.0938 502.181 74.4466 500.684 77.6367C499.186 80.8268 497.201 83.6263 494.727 86.0352C492.253 88.444 489.388 90.3646 486.133 91.7969C482.878 93.1641 479.492 93.8477 475.977 93.8477C475.716 93.8477 475.293 93.8151 474.707 93.75C474.121 93.75 473.73 93.75 473.535 93.75C472.103 93.1641 471.094 92.0898 470.508 90.5273C469.987 88.9648 469.727 87.5 469.727 86.1328ZM475.977 88.0859C476.042 88.4115 476.302 88.5742 476.758 88.5742C477.214 88.5742 477.539 88.5742 477.734 88.5742C480.078 88.5742 482.487 87.9883 484.961 86.8164C487.435 85.5794 489.648 84.0169 491.602 82.1289C493.62 80.1758 495.247 77.9948 496.484 75.5859C497.786 73.112 498.438 70.638 498.438 68.1641C496.354 68.1641 494.271 68.0013 492.188 67.6758C490.104 67.2852 488.086 67.0898 486.133 67.0898H486.035L477.93 75.6836C477.474 76.1393 477.116 76.7578 476.855 77.5391C476.595 78.3203 476.4 79.1667 476.27 80.0781C476.139 80.9896 476.042 81.901 475.977 82.8125C475.911 83.724 475.879 84.5378 475.879 85.2539C475.879 85.4492 475.879 85.9049 475.879 86.6211C475.879 87.3372 475.911 87.8255 475.977 88.0859ZM516.309 91.7969L519.629 72.2656V69.5312L521.582 56.543C521.777 56.2826 522.135 56.1523 522.656 56.1523C523.177 56.0872 523.535 56.0547 523.73 56.0547C524.251 56.0547 524.837 56.25 525.488 56.6406C526.204 56.9661 526.562 57.4219 526.562 58.0078V64.6484C526.823 64.4531 527.279 64.0625 527.93 63.4766C528.581 62.8906 529.264 62.2721 529.98 61.6211C530.762 60.9701 531.478 60.3516 532.129 59.7656C532.78 59.1797 533.203 58.7565 533.398 58.4961C534.115 57.8451 534.961 57.2917 535.938 56.8359C536.979 56.3802 537.956 56.1523 538.867 56.1523C540.755 56.1523 542.22 56.7383 543.262 57.9102C544.368 59.082 544.922 60.5794 544.922 62.4023C544.922 62.5326 544.889 62.6302 544.824 62.6953C544.824 62.6953 544.824 62.7604 544.824 62.8906V63.2812L541.113 79.9805V87.8906C543.132 87.8906 545.215 87.5 547.363 86.7188C549.577 85.8724 551.693 84.8307 553.711 83.5938C555.729 82.3568 557.617 80.957 559.375 79.3945C561.133 77.7669 562.663 76.2044 563.965 74.707H564.355C564.811 74.707 565.169 74.8698 565.43 75.1953C565.755 75.4557 565.918 75.8138 565.918 76.2695C565.918 77.7018 565.43 79.1341 564.453 80.5664C563.542 81.9336 562.337 83.2357 560.84 84.4727C559.408 85.7096 557.715 86.8815 555.762 87.9883C553.874 89.0951 551.986 90.0391 550.098 90.8203C548.275 91.6016 546.484 92.2201 544.727 92.6758C542.969 93.1315 541.471 93.3594 540.234 93.3594C538.997 93.3594 538.021 93.1315 537.305 92.6758C536.589 92.2201 536.035 91.6341 535.645 90.918C535.319 90.1367 535.091 89.2904 534.961 88.3789C534.896 87.4674 534.863 86.4909 534.863 85.4492V84.1797L538.672 65.2344V62.0117C537.109 62.0117 535.547 62.6953 533.984 64.0625C532.487 65.4297 531.12 67.0898 529.883 69.043C528.711 70.9961 527.669 72.9818 526.758 75C525.911 77.0182 525.293 78.6784 524.902 79.9805C524.772 80.4362 524.577 81.25 524.316 82.4219C524.056 83.5938 523.796 84.8307 523.535 86.1328C523.34 87.4349 523.145 88.6719 522.949 89.8438C522.754 91.0156 522.624 91.862 522.559 92.3828C522.624 92.7734 522.493 93.0664 522.168 93.2617C521.908 93.457 521.582 93.6198 521.191 93.75C520.801 93.8151 520.378 93.8477 519.922 93.8477C519.531 93.8477 519.206 93.8477 518.945 93.8477C518.359 93.8477 517.773 93.75 517.188 93.5547C516.602 93.3594 516.309 92.8711 516.309 92.0898V91.7969Z" fill="#333333"/>
</svg>
